<?xml version="1.0" encoding="UTF-8"?><svg id="Layer_2" xmlns="http://www.w3.org/2000/svg" xmlns:xlink="http://www.w3.org/1999/xlink" viewBox="0 0 499.67 468.63"><defs><clipPath id="clippath"><polygon points="499.67 218.8 249.84 468.63 0 218.8 499.67 218.8" style="clip-rule:evenodd; fill:none;"/></clipPath><linearGradient id="linear-gradient" x1="498.55" y1="344.62" x2="-.45" y2="342.81" gradientUnits="userSpaceOnUse"><stop offset="0" stop-color="#ca4d0d"/><stop offset=".51" stop-color="#fff98a"/><stop offset="1" stop-color="#ca4d0d"/></linearGradient><clipPath id="clippath-1"><polygon points="22.64 218.8 462.18 218.8 242.41 433.26 22.64 218.8" style="clip-rule:evenodd; fill:none;"/></clipPath><linearGradient id="linear-gradient-2" x1="462.18" y1="326.03" x2="19.41" y2="326.03" gradientUnits="userSpaceOnUse"><stop offset="0" stop-color="#ca4d0d"/><stop offset=".38" stop-color="#fff98a"/><stop offset=".49" stop-color="#fcffed"/><stop offset=".67" stop-color="#fff98a"/><stop offset="1" stop-color="#ca4d0d"/></linearGradient><clipPath id="clippath-2"><rect x="121.82" y="90.78" width="256.03" height="256.03" transform="translate(-81.54 240.74) rotate(-45)" style="fill:none;"/></clipPath><linearGradient id="linear-gradient-3" x1="248.86" y1="39.33" x2="250.37" y2="316.73" gradientUnits="userSpaceOnUse"><stop offset="0" stop-color="#ca4d0d"/><stop offset=".56" stop-color="#fff98a"/><stop offset="1" stop-color="#ca4d0d"/></linearGradient><clipPath id="clippath-3"><rect x="142.61" y="111.58" width="214.44" height="214.44" transform="translate(-81.54 240.75) rotate(-45)" style="fill:none;"/></clipPath><linearGradient id="linear-gradient-4" x1="366.51" y1="218.16" x2="153.2" y2="219.33" gradientUnits="userSpaceOnUse"><stop offset="0" stop-color="#fff98a"/><stop offset=".55" stop-color="#ca4d0d"/><stop offset="1" stop-color="#fff98a"/></linearGradient><clipPath id="clippath-4"><path d="M249.84,277.7l75.08-88.89c12.41-25.12,16.58-53.51,11.93-81.13,16.4-17.91,40.17-27.23,64.37-25.24-14.99,33.53-17.04,71.41-5.78,106.37l-145.6,160.82v-71.94Z" style="clip-rule:evenodd; fill:none;"/></clipPath><linearGradient id="linear-gradient-5" x1="250.17" y1="215.13" x2="401.35" y2="214.97" gradientUnits="userSpaceOnUse"><stop offset="0" stop-color="#fff98a"/><stop offset=".51" stop-color="#ca4d0d"/><stop offset="1" stop-color="#fff98a"/></linearGradient><clipPath id="clippath-5"><path d="M249.84,277.7l-75.08-88.89c-12.41-25.12-16.58-53.51-11.93-81.13-16.4-17.91-40.17-27.23-64.37-25.24,14.99,33.53,17.04,71.41,5.78,106.37l145.6,160.82v-71.94Z" style="clip-rule:evenodd; fill:none;"/></clipPath><linearGradient id="linear-gradient-6" x1="249.5" y1="215.13" x2="98.32" y2="214.97" xlink:href="#linear-gradient-5"/><clipPath id="clippath-6"><path d="M249.84,399.84s60.35-60.35,181.04-181.04c-11.27-34.95-9.21-72.84,5.78-106.37-24.2-1.99-47.97,7.33-64.37,25.24,4.65,27.63.48,56.01-11.93,81.13,0,0-36.84,43.61-110.52,130.84v50.2Z" style="clip-rule:evenodd; fill:none;"/></clipPath><linearGradient id="linear-gradient-7" x1="467.48" y1="106.96" x2="268.66" y2="344.1" gradientUnits="userSpaceOnUse"><stop offset="0" stop-color="#ca4d0d"/><stop offset=".38" stop-color="#fff98a"/><stop offset=".55" stop-color="#fcffed"/><stop offset=".71" stop-color="#fff98a"/><stop offset="1" stop-color="#ca4d0d"/></linearGradient><clipPath id="clippath-7"><path d="M249.84,399.84s60.35-60.35,181.04-181.04c-11.27-34.95-9.21-72.84,5.78-106.37-12.1-.99-24.09.84-35.11,5.16-6.94,31.43-9.02,63.73-6.18,95.79-97.02,104.55-145.54,156.83-145.54,156.83v29.64Z" style="clip-rule:evenodd; fill:none;"/></clipPath><linearGradient id="linear-gradient-8" x1="499.73" y1="69" x2="300.9" y2="306.14" xlink:href="#linear-gradient"/><clipPath id="clippath-8"><polygon points="218.93 37.76 249.84 0 280.74 37.76 249.84 75.51 218.93 37.76" style="clip-rule:evenodd; fill:none;"/></clipPath><linearGradient id="linear-gradient-9" x1="249.68" y1=".33" x2="250" y2="75.51" xlink:href="#linear-gradient"/><clipPath id="clippath-9"><path d="M249.84,399.84s-60.35-60.35-181.04-181.04c11.27-34.95,9.21-72.84-5.78-106.37,24.2-1.99,47.97,7.33,64.37,25.24-4.65,27.63-.48,56.01,11.93,81.13,0,0,36.84,43.61,110.52,130.84v50.2Z" style="clip-rule:evenodd; fill:none;"/></clipPath><linearGradient id="linear-gradient-10" x1="32.19" y1="106.96" x2="231.01" y2="344.1" xlink:href="#linear-gradient-7"/><clipPath id="clippath-10"><polygon points="139.32 218.8 249.84 87.96 360.36 218.8 249.84 349.64 139.32 218.8" style="clip-rule:evenodd; fill:none;"/></clipPath><linearGradient id="linear-gradient-11" x1="357.46" y1="236.45" x2="142.21" y2="201.14" gradientUnits="userSpaceOnUse"><stop offset="0" stop-color="#ca4d0d"/><stop offset=".48" stop-color="#fff98a"/><stop offset="1" stop-color="#ca4d0d"/></linearGradient><clipPath id="clippath-11"><polygon points="149.08 218.8 249.84 338.08 350.59 218.8 249.84 99.52 149.08 218.8" style="clip-rule:evenodd; fill:none;"/></clipPath><linearGradient id="linear-gradient-12" x1="249.83" y1="105.86" x2="249.84" y2="324.65" gradientUnits="userSpaceOnUse"><stop offset="0" stop-color="#522402"/><stop offset="1" stop-color="#0b040b"/></linearGradient><clipPath id="clippath-12"><path d="M249.84,124.83c51.89,0,93.96,42.07,93.96,93.96s-42.07,93.96-93.96,93.96-93.96-42.07-93.96-93.96,42.07-93.96,93.96-93.96" style="clip-rule:evenodd; fill:none;"/></clipPath><linearGradient id="linear-gradient-13" x1="300.67" y1="122.13" x2="200.87" y2="311.91" xlink:href="#linear-gradient-7"/><clipPath id="clippath-13"><path d="M249.84,130.61c48.7,0,88.19,39.48,88.19,88.18s-39.48,88.18-88.19,88.18-88.19-39.48-88.19-88.18,39.48-88.18,88.19-88.18" style="clip-rule:evenodd; fill:none;"/></clipPath><linearGradient id="linear-gradient-14" x1="249.84" y1="135.3" x2="249.84" y2="297.05" xlink:href="#linear-gradient-12"/><clipPath id="clippath-14"><path d="M249.84,399.84s-60.35-60.35-181.04-181.04c11.27-34.95,9.21-72.84-5.78-106.37,12.1-.99,24.09.84,35.11,5.16,6.94,31.43,9.02,63.73,6.18,95.79,97.02,104.55,145.54,156.83,145.54,156.83v29.64Z" style="clip-rule:evenodd; fill:none;"/></clipPath><linearGradient id="linear-gradient-15" x1="-.05" y1="69" x2="198.77" y2="306.14" xlink:href="#linear-gradient"/><clipPath id="clippath-15"><polygon points="218.93 352.18 249.84 304.52 280.74 352.18 249.84 399.84 218.93 352.18" style="clip-rule:evenodd; fill:none;"/></clipPath><linearGradient id="linear-gradient-16" x1="249.59" y1="304.94" x2="250.09" y2="399.84" xlink:href="#linear-gradient"/><clipPath id="clippath-16"><polygon points="249.84 75.51 280.74 37.76 249.84 37.76 249.84 75.51" style="clip-rule:evenodd; fill:none;"/></clipPath><linearGradient id="linear-gradient-17" x1="307.36" y1="49.11" x2="245.58" y2="60.16" xlink:href="#linear-gradient-7"/><clipPath id="clippath-17"><polygon points="249.84 0 218.93 37.76 249.84 37.76 249.84 0" style="clip-rule:evenodd; fill:none;"/></clipPath><linearGradient id="linear-gradient-18" x1="192.31" y1="26.4" x2="254.09" y2="15.36" xlink:href="#linear-gradient-7"/><clipPath id="clippath-18"><polygon points="249.84 304.52 218.93 352.18 249.84 352.18 249.84 304.52" style="clip-rule:evenodd; fill:none;"/></clipPath><linearGradient id="linear-gradient-19" x1="191.82" y1="322.32" x2="254.32" y2="331.18" xlink:href="#linear-gradient-7"/><clipPath id="clippath-19"><polygon points="249.84 399.84 280.74 352.18 249.84 352.18 249.84 399.84" style="clip-rule:evenodd; fill:none;"/></clipPath><linearGradient id="linear-gradient-20" x1="307.85" y1="382.04" x2="245.35" y2="373.19" xlink:href="#linear-gradient-7"/><clipPath id="clippath-20"><polygon points="260.43 172.02 260.43 182.53 260.43 255.06 260.43 265.57 264.54 276.08 260.43 276.08 239.24 276.08 235.13 276.08 239.24 265.57 239.24 255.06 239.24 182.53 239.24 172.02 235.13 161.51 239.24 161.51 260.43 161.51 264.54 161.51 260.43 172.02" style="clip-rule:evenodd; fill:none;"/></clipPath><linearGradient id="linear-gradient-21" x1="249.83" y1="274.9" x2="249.84" y2="161.52" gradientUnits="userSpaceOnUse"><stop offset="0" stop-color="#dd933a"/><stop offset=".54" stop-color="#eecb6f"/><stop offset="1" stop-color="#fcffed"/></linearGradient><clipPath id="clippath-21"><polygon points="261.53 163.57 238.14 163.57 241.3 171.64 241.3 265.96 238.14 274.03 261.53 274.03 258.38 265.96 258.38 171.64 261.53 163.57" style="clip-rule:evenodd; fill:none;"/></clipPath><linearGradient id="linear-gradient-22" x1="249.83" y1="272.88" x2="249.84" y2="163.57" gradientUnits="userSpaceOnUse"><stop offset="0" stop-color="#eecb6f"/><stop offset="1" stop-color="#fcffed"/></linearGradient></defs><g id="Layer_1"><g style="clip-path:url(#clippath);"><rect y="218.8" width="499.67" height="249.84" style="fill:url(#linear-gradient);"/></g><g style="clip-path:url(#clippath-1);"><rect x="22.64" y="218.8" width="439.55" height="214.46" style="fill:url(#linear-gradient-2);"/></g><g style="clip-path:url(#clippath-2);"><rect x="68.79" y="37.75" width="362.09" height="362.09" style="fill:url(#linear-gradient-3);"/></g><g style="clip-path:url(#clippath-3);"><rect x="98.2" y="67.16" width="303.27" height="303.27" style="fill:url(#linear-gradient-4);"/></g><g style="clip-path:url(#clippath-4);"><rect x="249.84" y="80.46" width="151.38" height="269.18" style="fill:url(#linear-gradient-5);"/></g><g style="clip-path:url(#clippath-5);"><rect x="98.45" y="80.46" width="151.38" height="269.18" style="fill:url(#linear-gradient-6);"/></g><g style="clip-path:url(#clippath-6);"><rect x="249.84" y="110.44" width="186.82" height="289.4" style="fill:url(#linear-gradient-7);"/></g><g style="clip-path:url(#clippath-7);"><rect x="249.84" y="111.43" width="186.82" height="288.41" style="fill:url(#linear-gradient-8);"/></g><g style="clip-path:url(#clippath-8);"><rect x="218.93" y="0" width="61.81" height="75.51" style="fill:url(#linear-gradient-9);"/></g><g style="clip-path:url(#clippath-9);"><rect x="63.01" y="110.44" width="186.82" height="289.4" style="fill:url(#linear-gradient-10);"/></g><polygon points="139.32 218.8 249.84 87.96 360.36 218.8 249.84 349.64 139.32 218.8" style="fill:#fff; fill-rule:evenodd;"/><g style="clip-path:url(#clippath-10);"><rect x="139.32" y="87.96" width="221.04" height="261.68" style="fill:url(#linear-gradient-11);"/></g><g style="clip-path:url(#clippath-11);"><rect x="149.08" y="99.52" width="201.51" height="238.56" style="fill:url(#linear-gradient-12);"/></g><g style="clip-path:url(#clippath-12);"><rect x="155.87" y="124.83" width="187.93" height="187.93" style="fill:url(#linear-gradient-13);"/></g><g style="clip-path:url(#clippath-13);"><rect x="161.65" y="130.61" width="176.37" height="176.37" style="fill:url(#linear-gradient-14);"/></g><g style="clip-path:url(#clippath-14);"><rect x="63.01" y="111.43" width="186.82" height="288.41" style="fill:url(#linear-gradient-15);"/></g><g style="clip-path:url(#clippath-15);"><rect x="218.93" y="304.52" width="61.81" height="95.32" style="fill:url(#linear-gradient-16);"/></g><g style="clip-path:url(#clippath-16);"><rect x="249.84" y="37.76" width="30.9" height="37.75" style="fill:url(#linear-gradient-17);"/></g><g style="clip-path:url(#clippath-17);"><rect x="218.93" width="30.9" height="37.76" style="fill:url(#linear-gradient-18);"/></g><g style="clip-path:url(#clippath-18);"><rect x="218.93" y="304.52" width="30.9" height="47.66" style="fill:url(#linear-gradient-19);"/></g><g style="clip-path:url(#clippath-19);"><rect x="249.84" y="352.18" width="30.9" height="47.66" style="fill:url(#linear-gradient-20);"/></g><g style="clip-path:url(#clippath-20);"><rect x="235.13" y="161.51" width="29.41" height="114.57" style="fill:url(#linear-gradient-21);"/></g><g style="clip-path:url(#clippath-21);"><rect x="238.14" y="163.57" width="23.39" height="110.46" style="fill:url(#linear-gradient-22);"/></g></g></svg>