<?xml version="1.0" encoding="UTF-8"?><svg id="Layer_2" xmlns="http://www.w3.org/2000/svg" xmlns:xlink="http://www.w3.org/1999/xlink" viewBox="0 0 499.76 418.8"><defs><clipPath id="clippath"><polygon points="367.49 117.62 249.88 0 132.26 117.62 249.88 126.72 367.49 117.62" style="clip-rule:evenodd; fill:none;"/></clipPath><linearGradient id="linear-gradient" x1="169.96" y1="63.36" x2="325.54" y2="63.36" gradientUnits="userSpaceOnUse"><stop offset="0" stop-color="#c845af"/><stop offset=".49" stop-color="#ffeaff"/><stop offset="1" stop-color="#c845af"/></linearGradient><clipPath id="clippath-1"><polygon points="337.48 119.94 249.88 21.9 162.28 119.94 249.88 126.72 337.48 119.94" style="clip-rule:evenodd; fill:none;"/></clipPath><linearGradient id="linear-gradient-2" x1="207.58" y1="74.31" x2="295.52" y2="74.31" gradientUnits="userSpaceOnUse"><stop offset="0" stop-color="#6759b1"/><stop offset=".5" stop-color="#f3f1f6"/><stop offset="1" stop-color="#6759b1"/></linearGradient><clipPath id="clippath-2"><path d="M336.15,144.15l97.25-31.38c-17.79-6.19-68.69-25.74-88.06-43.11-14.72,22.21-48.11,30.41-71.82,11.86,23.66,44,33.96,64.82,62.64,62.64" style="clip-rule:evenodd; fill:none;"/></clipPath><linearGradient id="linear-gradient-3" x1="415.58" y1="67.6" x2="331.74" y2="122.11" gradientUnits="userSpaceOnUse"><stop offset="0" stop-color="#f3f1f6"/><stop offset=".57" stop-color="#c845af"/><stop offset="1" stop-color="#6759b1"/></linearGradient><clipPath id="clippath-3"><path d="M163.6,144.15l-97.25-31.38c17.79-6.19,68.69-25.74,88.06-43.11,14.72,22.21,48.11,30.41,71.82,11.86-23.66,44-33.96,64.82-62.64,62.64" style="clip-rule:evenodd; fill:none;"/></clipPath><linearGradient id="linear-gradient-4" x1="84.17" y1="67.6" x2="168.02" y2="122.11" xlink:href="#linear-gradient-3"/><clipPath id="clippath-4"><path d="M345.33,69.65c-14.73,22.21-48.11,30.41-71.82,11.85,9.47,17.61,16.8,31.51,24.03,41.7,3.49.15,7.03-.09,10.56-.75,12.95.27,25.19-5.92,32.65-16.5,7.46-10.59,9.18-24.19,4.58-36.3" style="clip-rule:evenodd; fill:none;"/></clipPath><linearGradient id="linear-gradient-5" x1="358.29" y1="69.48" x2="293.52" y2="107.07" xlink:href="#linear-gradient-3"/><clipPath id="clippath-5"><path d="M154.42,69.65c14.73,22.21,48.11,30.41,71.82,11.85-9.47,17.61-16.8,31.51-24.03,41.7-3.49.15-7.03-.09-10.56-.75-12.95.27-25.19-5.92-32.65-16.5-7.46-10.59-9.18-24.19-4.58-36.3" style="clip-rule:evenodd; fill:none;"/></clipPath><linearGradient id="linear-gradient-6" x1="141.46" y1="69.48" x2="206.24" y2="107.07" xlink:href="#linear-gradient-3"/><clipPath id="clippath-6"><polygon points="367.49 301.19 249.88 418.8 132.26 301.19 249.88 292.09 367.49 301.19" style="clip-rule:evenodd; fill:none;"/></clipPath><linearGradient id="linear-gradient-7" y1="355.45" y2="355.45" xlink:href="#linear-gradient"/><clipPath id="clippath-7"><polygon points="337.48 298.86 249.88 396.9 162.28 298.86 249.88 292.09 337.48 298.86" style="clip-rule:evenodd; fill:none;"/></clipPath><linearGradient id="linear-gradient-8" x1="207.58" y1="344.5" x2="295.52" y2="344.5" xlink:href="#linear-gradient-2"/><clipPath id="clippath-8"><path d="M336.15,274.9l97.25,31.38c-17.79,6.19-68.69,25.74-88.06,43.11-14.72-22.21-48.11-30.41-71.82-11.86,23.66-44,33.96-64.82,62.64-62.64" style="clip-rule:evenodd; fill:none;"/></clipPath><linearGradient id="linear-gradient-9" x1="415.58" y1="351.45" x2="331.74" y2="296.94" xlink:href="#linear-gradient-3"/><clipPath id="clippath-9"><path d="M345.33,349.4c-14.73-22.21-48.11-30.41-71.82-11.85,9.47-17.61,16.8-31.51,24.03-41.7,3.49-.15,7.03.09,10.56.76,12.95-.27,25.19,5.92,32.65,16.5,7.46,10.59,9.18,24.19,4.58,36.3" style="clip-rule:evenodd; fill:none;"/></clipPath><linearGradient id="linear-gradient-10" x1="358.29" y1="349.56" x2="293.52" y2="311.98" xlink:href="#linear-gradient-3"/><clipPath id="clippath-10"><path d="M163.6,274.9l-97.25,31.38c17.79,6.19,68.69,25.74,88.06,43.11,14.72-22.21,48.11-30.41,71.82-11.86-23.66-44-33.96-64.82-62.64-62.64" style="clip-rule:evenodd; fill:none;"/></clipPath><linearGradient id="linear-gradient-11" x1="84.17" y1="351.45" x2="168.02" y2="296.94" xlink:href="#linear-gradient-3"/><clipPath id="clippath-11"><path d="M154.42,349.4c14.73-22.21,48.11-30.41,71.82-11.85-9.47-17.61-16.8-31.51-24.03-41.7-3.49-.15-7.03.09-10.56.76-12.95-.27-25.19,5.92-32.65,16.5-7.46,10.59-9.18,24.19-4.58,36.3" style="clip-rule:evenodd; fill:none;"/></clipPath><linearGradient id="linear-gradient-12" x1="141.46" y1="349.56" x2="206.24" y2="311.98" xlink:href="#linear-gradient-3"/><clipPath id="clippath-12"><path d="M370.8,209.52h128.95c-19.83-11.66-75.73-46.77-92.67-69.51-28.38,16.18-74.25,13.03-96.16-12.26,10.71,49.32,22.6,74.47,59.88,81.77" style="clip-rule:evenodd; fill:none;"/></clipPath><linearGradient id="linear-gradient-13" x1="431.87" y1="154.67" x2="357.01" y2="194.09" xlink:href="#linear-gradient-3"/><clipPath id="clippath-13"><path d="M128.95,209.52H0c19.83-11.66,75.73-46.77,92.67-69.51,28.38,16.18,74.25,13.03,96.16-12.26-10.71,49.32-22.6,74.47-59.88,81.77" style="clip-rule:evenodd; fill:none;"/></clipPath><linearGradient id="linear-gradient-14" x1="67.89" y1="154.67" x2="142.74" y2="194.09" xlink:href="#linear-gradient-3"/><clipPath id="clippath-14"><path d="M370.8,209.52h128.95c-19.83,11.66-75.73,46.77-92.67,69.51-28.38-16.18-74.25-13.03-96.16,12.26,10.71-49.32,22.6-74.47,59.88-81.77" style="clip-rule:evenodd; fill:none;"/></clipPath><linearGradient id="linear-gradient-15" x1="490.09" y1="278.66" x2="365.79" y2="237.23" xlink:href="#linear-gradient-3"/><clipPath id="clippath-15"><path d="M128.95,209.52H0c19.83,11.66,75.73,46.77,92.67,69.51,28.38-16.18,74.25-13.03,96.16,12.26-10.71-49.32-22.6-74.47-59.88-81.77" style="clip-rule:evenodd; fill:none;"/></clipPath><linearGradient id="linear-gradient-16" x1="9.67" y1="278.66" x2="133.97" y2="237.23" xlink:href="#linear-gradient-3"/><clipPath id="clippath-16"><rect x="142.64" y="102.29" width="214.47" height="214.47" transform="translate(-74.97 238.06) rotate(-45)" style="fill:none;"/></clipPath><linearGradient id="linear-gradient-17" x1="98.35" y1="209.41" x2="401.65" y2="209.4" gradientUnits="userSpaceOnUse"><stop offset="0" stop-color="#c845af"/><stop offset=".29" stop-color="#ffeaff"/><stop offset=".72" stop-color="#ffeaff"/><stop offset="1" stop-color="#c845af"/></linearGradient><clipPath id="clippath-17"><polygon points="118.11 209.52 249.88 53.53 381.65 209.52 249.88 365.52 118.11 209.52" style="clip-rule:evenodd; fill:none;"/></clipPath><linearGradient id="linear-gradient-18" x1="119.02" y1="209.62" x2="381.65" y2="209.43" gradientUnits="userSpaceOnUse"><stop offset="0" stop-color="#6759b1"/><stop offset=".24" stop-color="#c845af"/><stop offset=".5" stop-color="#f3f1f6"/><stop offset=".7" stop-color="#c845af"/><stop offset="1" stop-color="#6759b1"/></linearGradient><clipPath id="clippath-18"><polygon points="145.31 209.52 249.88 333.32 354.44 209.52 249.88 85.73 145.31 209.52" style="clip-rule:evenodd; fill:none;"/></clipPath><linearGradient id="linear-gradient-19" x1="249.42" y1="85.64" x2="250.33" y2="333.65" gradientUnits="userSpaceOnUse"><stop offset="0" stop-color="#2b0025"/><stop offset=".52" stop-color="#9f368b"/><stop offset="1" stop-color="#2b0025"/></linearGradient><clipPath id="clippath-19"><polygon points="157.3 209.52 249.88 99.92 342.46 209.52 249.88 319.13 157.3 209.52" style="clip-rule:evenodd; fill:none;"/></clipPath><linearGradient id="linear-gradient-20" x1="231.84" y1="316.07" x2="267.92" y2="102.98" xlink:href="#linear-gradient-18"/><clipPath id="clippath-20"><polygon points="165.48 209.52 249.88 309.44 334.28 209.52 249.88 109.61 165.48 209.52" style="clip-rule:evenodd; fill:none;"/></clipPath><linearGradient id="linear-gradient-21" x1="249.88" y1="278.35" x2="249.88" y2="24.4" gradientUnits="userSpaceOnUse"><stop offset="0" stop-color="#0c000f"/><stop offset="1" stop-color="#4c073d"/></linearGradient><clipPath id="clippath-21"><path d="M249.88,130.82c43.47,0,78.71,35.24,78.71,78.71s-35.24,78.71-78.71,78.71-78.71-35.24-78.71-78.71,35.24-78.71,78.71-78.71" style="clip-rule:evenodd; fill:none;"/></clipPath><linearGradient id="linear-gradient-22" x1="171.72" y1="209.59" x2="328.59" y2="209.46" xlink:href="#linear-gradient-18"/><clipPath id="clippath-22"><path d="M249.88,135.66c40.8,0,73.87,33.07,73.87,73.87s-33.07,73.87-73.87,73.87-73.87-33.07-73.87-73.87,33.07-73.87,73.87-73.87" style="clip-rule:evenodd; fill:none;"/></clipPath><linearGradient id="linear-gradient-23" x1="250.48" y1="281.95" x2="249.27" y2="135.66" xlink:href="#linear-gradient-21"/><clipPath id="clippath-23"><polygon points="222.24 53.53 249.88 85.15 277.52 53.53 249.88 21.9 222.24 53.53" style="clip-rule:evenodd; fill:none;"/></clipPath><linearGradient id="linear-gradient-24" x1="245.69" y1="22.47" x2="254.14" y2="85.16" gradientUnits="userSpaceOnUse"><stop offset="0" stop-color="#6759b1"/><stop offset=".5" stop-color="#f3f1f6"/><stop offset="1" stop-color="#c845af"/></linearGradient><clipPath id="clippath-24"><polygon points="249.88 21.9 222.24 53.53 249.88 53.53 249.88 21.9" style="clip-rule:evenodd; fill:none;"/></clipPath><linearGradient id="linear-gradient-25" x1="219.3" y1="49.27" x2="253.12" y2="25.95" xlink:href="#linear-gradient-24"/><clipPath id="clippath-25"><polygon points="249.88 85.15 277.52 53.53 249.88 53.53 249.88 85.15" style="clip-rule:evenodd; fill:none;"/></clipPath><linearGradient id="linear-gradient-26" x1="280.45" y1="57.78" x2="246.63" y2="81.11" xlink:href="#linear-gradient-24"/><clipPath id="clippath-26"><polygon points="222.24 365.28 249.88 396.9 277.52 365.28 249.88 333.65 222.24 365.28" style="clip-rule:evenodd; fill:none;"/></clipPath><linearGradient id="linear-gradient-27" x1="245.69" y1="334.22" x2="254.14" y2="396.91" xlink:href="#linear-gradient-24"/><clipPath id="clippath-27"><polygon points="249.88 333.65 222.24 365.28 249.88 365.28 249.88 333.65" style="clip-rule:evenodd; fill:none;"/></clipPath><linearGradient id="linear-gradient-28" x1="219.3" y1="361.02" x2="253.12" y2="337.7" xlink:href="#linear-gradient-24"/><clipPath id="clippath-28"><polygon points="249.88 396.9 277.52 365.28 249.88 365.28 249.88 396.9" style="clip-rule:evenodd; fill:none;"/></clipPath><linearGradient id="linear-gradient-29" x1="280.45" y1="369.53" x2="246.63" y2="392.86" xlink:href="#linear-gradient-24"/><clipPath id="clippath-29"><polygon points="249.88 326.8 238.98 309.44 249.88 292.09 260.77 309.44 249.88 326.8" style="clip-rule:evenodd; fill:none;"/></clipPath><linearGradient id="linear-gradient-30" x1="248.41" y1="326.67" x2="251.34" y2="292.31" gradientUnits="userSpaceOnUse"><stop offset="0" stop-color="#6759b1"/><stop offset=".19" stop-color="#6759b1"/><stop offset=".5" stop-color="#f3f1f6"/><stop offset=".7" stop-color="#c845af"/><stop offset="1" stop-color="#c845af"/></linearGradient><clipPath id="clippath-30"><polygon points="249.88 292.09 238.98 309.44 249.88 309.44 249.88 292.09" style="clip-rule:evenodd; fill:none;"/></clipPath><linearGradient id="linear-gradient-31" x1="253.34" y1="307.37" x2="242.93" y2="299.65" xlink:href="#linear-gradient-3"/><clipPath id="clippath-31"><polygon points="249.88 326.8 260.77 309.44 249.88 309.44 249.88 326.8" style="clip-rule:evenodd; fill:none;"/></clipPath><linearGradient id="linear-gradient-32" x1="246.41" y1="311.52" x2="256.83" y2="319.23" xlink:href="#linear-gradient-3"/><clipPath id="clippath-32"><polygon points="249.88 126.96 238.98 109.61 249.88 92.25 260.77 109.61 249.88 126.96" style="clip-rule:evenodd; fill:none;"/></clipPath><linearGradient id="linear-gradient-33" x1="248.41" y1="126.84" x2="251.34" y2="92.47" xlink:href="#linear-gradient-30"/><clipPath id="clippath-33"><polygon points="249.88 92.25 238.98 109.61 249.88 109.61 249.88 92.25" style="clip-rule:evenodd; fill:none;"/></clipPath><linearGradient id="linear-gradient-34" x1="253.34" y1="107.53" x2="242.93" y2="99.82" xlink:href="#linear-gradient-3"/><clipPath id="clippath-34"><polygon points="249.88 126.96 260.77 109.61 249.88 109.61 249.88 126.96" style="clip-rule:evenodd; fill:none;"/></clipPath><linearGradient id="linear-gradient-35" x1="246.41" y1="111.68" x2="256.83" y2="119.4" xlink:href="#linear-gradient-3"/><clipPath id="clippath-35"><polygon points="351.63 209.52 334.28 220.42 316.92 209.52 334.28 198.63 351.63 209.52" style="clip-rule:evenodd; fill:none;"/></clipPath><linearGradient id="linear-gradient-36" x1="351.51" y1="210.99" x2="317.14" y2="208.06" xlink:href="#linear-gradient-30"/><clipPath id="clippath-36"><polygon points="316.92 209.52 334.28 220.42 334.28 209.52 316.92 209.52" style="clip-rule:evenodd; fill:none;"/></clipPath><linearGradient id="linear-gradient-37" x1="332.2" y1="206.06" x2="324.49" y2="216.47" xlink:href="#linear-gradient-3"/><clipPath id="clippath-37"><polygon points="351.63 209.52 334.28 198.63 334.28 209.52 351.63 209.52" style="clip-rule:evenodd; fill:none;"/></clipPath><linearGradient id="linear-gradient-38" x1="336.35" y1="212.99" x2="344.07" y2="202.57" xlink:href="#linear-gradient-3"/><clipPath id="clippath-38"><polygon points="182.83 209.52 165.48 220.42 148.12 209.52 165.48 198.63 182.83 209.52" style="clip-rule:evenodd; fill:none;"/></clipPath><linearGradient id="linear-gradient-39" x1="182.71" y1="210.99" x2="148.34" y2="208.06" xlink:href="#linear-gradient-30"/><clipPath id="clippath-39"><polygon points="148.12 209.52 165.48 220.42 165.48 209.52 148.12 209.52" style="clip-rule:evenodd; fill:none;"/></clipPath><linearGradient id="linear-gradient-40" x1="163.4" y1="206.06" x2="155.69" y2="216.47" xlink:href="#linear-gradient-3"/><clipPath id="clippath-40"><polygon points="182.83 209.52 165.48 198.63 165.48 209.52 182.83 209.52" style="clip-rule:evenodd; fill:none;"/></clipPath><linearGradient id="linear-gradient-41" x1="167.55" y1="212.99" x2="175.27" y2="202.57" xlink:href="#linear-gradient-3"/><clipPath id="clippath-41"><polygon points="273.84 170.34 273.84 179.15 273.84 239.9 273.84 248.71 277.28 257.51 273.84 257.51 256.09 257.51 252.64 257.51 256.09 248.71 256.09 239.9 256.09 179.15 256.09 170.34 252.64 161.54 256.09 161.54 273.84 161.54 277.28 161.54 273.84 170.34" style="clip-rule:evenodd; fill:none;"/></clipPath><linearGradient id="linear-gradient-42" x1="264.96" y1="161.54" x2="264.96" y2="257.51" xlink:href="#linear-gradient-3"/><clipPath id="clippath-42"><polygon points="243.67 170.34 243.67 179.15 243.67 239.9 243.67 248.71 247.11 257.51 243.67 257.51 225.92 257.51 222.48 257.51 225.92 248.71 225.92 239.9 225.92 179.15 225.92 170.34 222.48 161.54 225.92 161.54 243.67 161.54 247.11 161.54 243.67 170.34" style="clip-rule:evenodd; fill:none;"/></clipPath><linearGradient id="linear-gradient-43" x1="234.79" y1="161.54" x2="234.8" y2="257.51" xlink:href="#linear-gradient-3"/><clipPath id="clippath-43"><polygon points="244.59 163.26 225 163.26 227.64 170.02 227.64 249.03 225 255.79 244.59 255.79 241.95 249.03 241.95 170.02 244.59 163.26" style="clip-rule:evenodd; fill:none;"/></clipPath><linearGradient id="linear-gradient-44" x1="234.79" y1="149.2" x2="234.8" y2="306.03" gradientUnits="userSpaceOnUse"><stop offset="0" stop-color="#f3f1f6"/><stop offset=".61" stop-color="#c845af"/><stop offset="1" stop-color="#6759b1"/></linearGradient><clipPath id="clippath-44"><polygon points="274.76 163.26 255.17 163.26 257.81 170.02 257.81 249.03 255.17 255.79 274.76 255.79 272.11 249.03 272.11 170.02 274.76 163.26" style="clip-rule:evenodd; fill:none;"/></clipPath><linearGradient id="linear-gradient-45" x1="264.96" y1="149.2" x2="264.97" y2="306.03" xlink:href="#linear-gradient-44"/></defs><g id="Layer_1"><g style="clip-path:url(#clippath);"><rect x="132.26" width="235.23" height="126.72" style="fill:url(#linear-gradient);"/></g><g style="clip-path:url(#clippath-1);"><rect x="162.28" y="21.9" width="175.2" height="104.82" style="fill:url(#linear-gradient-2);"/></g><g style="clip-path:url(#clippath-2);"><rect x="273.51" y="69.65" width="159.88" height="76.68" style="fill:url(#linear-gradient-3);"/></g><g style="clip-path:url(#clippath-3);"><rect x="66.36" y="69.65" width="159.88" height="76.68" style="fill:url(#linear-gradient-4);"/></g><g style="clip-path:url(#clippath-4);"><rect x="273.51" y="69.65" width="76.42" height="53.71" style="fill:url(#linear-gradient-5);"/></g><g style="clip-path:url(#clippath-5);"><rect x="149.82" y="69.65" width="76.42" height="53.71" style="fill:url(#linear-gradient-6);"/></g><g style="clip-path:url(#clippath-6);"><rect x="132.26" y="292.09" width="235.23" height="126.72" style="fill:url(#linear-gradient-7);"/></g><g style="clip-path:url(#clippath-7);"><rect x="162.28" y="292.09" width="175.2" height="104.82" style="fill:url(#linear-gradient-8);"/></g><g style="clip-path:url(#clippath-8);"><rect x="273.51" y="272.72" width="159.88" height="76.68" style="fill:url(#linear-gradient-9);"/></g><g style="clip-path:url(#clippath-9);"><rect x="273.51" y="295.69" width="76.42" height="53.71" style="fill:url(#linear-gradient-10);"/></g><g style="clip-path:url(#clippath-10);"><rect x="66.36" y="272.72" width="159.88" height="76.68" style="fill:url(#linear-gradient-11);"/></g><g style="clip-path:url(#clippath-11);"><rect x="149.82" y="295.69" width="76.42" height="53.71" style="fill:url(#linear-gradient-12);"/></g><g style="clip-path:url(#clippath-12);"><rect x="310.92" y="127.75" width="188.83" height="81.77" style="fill:url(#linear-gradient-13);"/></g><g style="clip-path:url(#clippath-13);"><rect y="127.75" width="188.83" height="81.77" style="fill:url(#linear-gradient-14);"/></g><g style="clip-path:url(#clippath-14);"><rect x="310.92" y="209.52" width="188.83" height="81.77" style="fill:url(#linear-gradient-15);"/></g><g style="clip-path:url(#clippath-15);"><rect y="209.52" width="188.83" height="81.77" style="fill:url(#linear-gradient-16);"/></g><g style="clip-path:url(#clippath-16);"><rect x="98.22" y="57.87" width="303.31" height="303.31" style="fill:url(#linear-gradient-17);"/></g><g style="clip-path:url(#clippath-17);"><rect x="118.11" y="53.53" width="263.54" height="312" style="fill:url(#linear-gradient-18);"/></g><g style="clip-path:url(#clippath-18);"><rect x="145.31" y="85.73" width="209.13" height="247.58" style="fill:url(#linear-gradient-19);"/></g><g style="clip-path:url(#clippath-19);"><rect x="157.3" y="99.92" width="185.16" height="219.2" style="fill:url(#linear-gradient-20);"/></g><g style="clip-path:url(#clippath-20);"><rect x="165.48" y="109.61" width="168.8" height="199.84" style="fill:url(#linear-gradient-21);"/></g><g style="clip-path:url(#clippath-21);"><rect x="171.17" y="130.82" width="157.42" height="157.42" style="fill:url(#linear-gradient-22);"/></g><g style="clip-path:url(#clippath-22);"><rect x="176.01" y="135.66" width="147.74" height="147.74" style="fill:url(#linear-gradient-23);"/></g><g style="clip-path:url(#clippath-23);"><rect x="222.24" y="21.9" width="55.28" height="63.25" style="fill:url(#linear-gradient-24);"/></g><g style="clip-path:url(#clippath-24);"><rect x="222.24" y="21.9" width="27.64" height="31.63" style="fill:url(#linear-gradient-25);"/></g><g style="clip-path:url(#clippath-25);"><rect x="249.88" y="53.53" width="27.64" height="31.63" style="fill:url(#linear-gradient-26);"/></g><g style="clip-path:url(#clippath-26);"><rect x="222.24" y="333.65" width="55.28" height="63.25" style="fill:url(#linear-gradient-27);"/></g><g style="clip-path:url(#clippath-27);"><rect x="222.24" y="333.65" width="27.64" height="31.63" style="fill:url(#linear-gradient-28);"/></g><g style="clip-path:url(#clippath-28);"><rect x="249.88" y="365.28" width="27.64" height="31.63" style="fill:url(#linear-gradient-29);"/></g><g style="clip-path:url(#clippath-29);"><rect x="238.98" y="292.09" width="21.79" height="34.71" style="fill:url(#linear-gradient-30);"/></g><g style="clip-path:url(#clippath-30);"><rect x="238.98" y="292.09" width="10.9" height="17.36" style="fill:url(#linear-gradient-31);"/></g><g style="clip-path:url(#clippath-31);"><rect x="249.88" y="309.44" width="10.9" height="17.36" style="fill:url(#linear-gradient-32);"/></g><g style="clip-path:url(#clippath-32);"><rect x="238.98" y="92.25" width="21.79" height="34.71" style="fill:url(#linear-gradient-33);"/></g><g style="clip-path:url(#clippath-33);"><rect x="238.98" y="92.25" width="10.9" height="17.36" style="fill:url(#linear-gradient-34);"/></g><g style="clip-path:url(#clippath-34);"><rect x="249.88" y="109.61" width="10.9" height="17.36" style="fill:url(#linear-gradient-35);"/></g><g style="clip-path:url(#clippath-35);"><rect x="316.92" y="198.63" width="34.71" height="21.79" style="fill:url(#linear-gradient-36);"/></g><g style="clip-path:url(#clippath-36);"><rect x="316.92" y="209.52" width="17.36" height="10.9" style="fill:url(#linear-gradient-37);"/></g><g style="clip-path:url(#clippath-37);"><rect x="334.28" y="198.63" width="17.36" height="10.9" style="fill:url(#linear-gradient-38);"/></g><g style="clip-path:url(#clippath-38);"><rect x="148.12" y="198.63" width="34.71" height="21.79" style="fill:url(#linear-gradient-39);"/></g><g style="clip-path:url(#clippath-39);"><rect x="148.12" y="209.52" width="17.36" height="10.9" style="fill:url(#linear-gradient-40);"/></g><g style="clip-path:url(#clippath-40);"><rect x="165.48" y="198.63" width="17.36" height="10.9" style="fill:url(#linear-gradient-41);"/></g><g style="clip-path:url(#clippath-41);"><rect x="252.64" y="161.54" width="24.63" height="95.97" style="fill:url(#linear-gradient-42);"/></g><g style="clip-path:url(#clippath-42);"><rect x="222.48" y="161.54" width="24.63" height="95.97" style="fill:url(#linear-gradient-43);"/></g><g style="clip-path:url(#clippath-43);"><rect x="225" y="163.26" width="19.59" height="92.53" style="fill:url(#linear-gradient-44);"/></g><g style="clip-path:url(#clippath-44);"><rect x="255.17" y="163.26" width="19.59" height="92.53" style="fill:url(#linear-gradient-45);"/></g></g></svg>