<?xml version="1.0" encoding="UTF-8"?><svg id="Layer_3" xmlns="http://www.w3.org/2000/svg" xmlns:xlink="http://www.w3.org/1999/xlink" viewBox="0 0 427.28 498.82"><defs><clipPath id="clippath"><path d="M213.64,0c86.95,0,157.44,70.49,157.44,157.43s-70.49,157.43-157.44,157.43S56.21,244.38,56.21,157.43,126.69,0,213.64,0" style="clip-rule:evenodd; fill:none;"/></clipPath><linearGradient id="linear-gradient" x1="378.12" y1="219.49" x2="81.52" y2="107.59" gradientUnits="userSpaceOnUse"><stop offset="0" stop-color="#ca4d0d"/><stop offset=".38" stop-color="#fff98a"/><stop offset=".55" stop-color="#fcffed"/><stop offset=".85" stop-color="#fff98a"/><stop offset="1" stop-color="#ca4d0d"/></linearGradient><clipPath id="clippath-1"><path d="M213.64,10.24c81.3,0,147.2,65.9,147.2,147.2s-65.9,147.2-147.2,147.2S66.44,238.73,66.44,157.43,132.35,10.24,213.64,10.24" style="clip-rule:evenodd; fill:none;"/></clipPath><linearGradient id="linear-gradient-2" x1="213.64" y1="295.59" x2="213.64" y2="10.23" gradientUnits="userSpaceOnUse"><stop offset="0" stop-color="#030a12"/><stop offset="1" stop-color="#032c45"/></linearGradient><clipPath id="clippath-2"><path d="M213.64,372.95c-69.14-92.4-103.71-138.6-103.71-138.6-11.64-26.61-15.56-56.68-11.2-85.94-15.39-18.97-37.69-28.84-60.4-26.74,14.06,35.52,15.99,75.65,5.42,112.68,113.25,127.86,169.88,191.78,169.88,191.78,0,0,56.63-63.93,169.88-191.78-10.57-37.03-8.64-77.16,5.42-112.68-22.71-2.11-45.01,7.76-60.4,26.74,4.37,29.26.45,59.34-11.2,85.94,0,0-34.57,46.2-103.71,138.6" style="clip-rule:evenodd; fill:none;"/></clipPath><linearGradient id="linear-gradient-3" x1="213.64" y1="238.36" x2="213.64" y2="155.48" gradientUnits="userSpaceOnUse"><stop offset="0" stop-color="#136396"/><stop offset=".67" stop-color="#aee3eb"/><stop offset="1" stop-color="#136396"/></linearGradient><clipPath id="clippath-3"><path d="M357.23,264.04l26.3-29.69c-10.57-37.03-8.64-77.16,5.42-112.68-11.57-1.07-23.04.97-33.54,5.73-6.56,45.36-5.95,91.47,1.82,136.63" style="clip-rule:evenodd; fill:none;"/></clipPath><linearGradient id="linear-gradient-4" x1="352.5" y1="263.22" x2="385.43" y2="120.81" gradientUnits="userSpaceOnUse"><stop offset="0" stop-color="#aee3eb"/><stop offset=".49" stop-color="#136396"/><stop offset="1" stop-color="#aee3eb"/></linearGradient><clipPath id="clippath-4"><path d="M204.75,184.36c1.87-12.13,2.8-18.19,2.8-18.19,60.48-10.34,113.22-39.13,146.56-79.99,24.03,23.63,36.04,35.45,36.04,35.45-48.84,39.23-115.47,61.77-185.4,62.74" style="clip-rule:evenodd; fill:none;"/></clipPath><linearGradient id="linear-gradient-5" x1="265.94" y1="176.8" x2="347.35" y2="69.48" gradientUnits="userSpaceOnUse"><stop offset="0" stop-color="#d8ebe9"/><stop offset=".44" stop-color="#65c9e1"/><stop offset="1" stop-color="#d8ebe9"/></linearGradient><clipPath id="clippath-5"><path d="M372.13,103.9l18.02,17.72c-41.32,33.19-95.38,54.43-153.4,60.77.15-1.96.35-3.92.63-5.88,48.48-16.91,93.97-41.42,134.75-72.61h0Z" style="clip-rule:evenodd; fill:none;"/></clipPath><linearGradient id="linear-gradient-6" x1="279.89" y1="187.39" x2="361.31" y2="80.06" gradientUnits="userSpaceOnUse"><stop offset="0" stop-color="#65c9e1"/><stop offset=".44" stop-color="#d8ebe9"/><stop offset="1" stop-color="#65c9e1"/></linearGradient><clipPath id="clippath-6"><path d="M68.85,264.04l-26.3-29.69c10.57-37.03,8.64-77.16-5.42-112.68,11.57-1.07,23.04.97,33.54,5.73,6.56,45.36,5.95,91.47-1.82,136.63" style="clip-rule:evenodd; fill:none;"/></clipPath><linearGradient id="linear-gradient-7" x1="73.58" y1="263.22" x2="40.65" y2="120.81" xlink:href="#linear-gradient-4"/><clipPath id="clippath-7"><path d="M213.64,481.38L6.61,322.4c12.88-30.7,10.53-63.96-6.61-93.41,27.68-1.75,54.85,6.44,73.61,22.16-11.04,50.34,105.89,155.1,140.03,186.14v44.08Z" style="clip-rule:evenodd; fill:none;"/></clipPath><linearGradient id="linear-gradient-8" x1="41.26" y1="226.59" x2="127.72" y2="395.03" xlink:href="#linear-gradient"/><clipPath id="clippath-8"><path d="M208.92,477.76L6.61,322.4c12.88-30.7,10.53-63.96-6.61-93.41,13.39-.84,26.67.64,38.93,4.17,6.01,22.45,7.69,45.84,4.95,68.91,54.86,49.05,112.01,95.46,171.27,139.1-.63,12.61-2.76,24.86-6.23,36.58" style="clip-rule:evenodd; fill:none;"/></clipPath><linearGradient id="linear-gradient-9" x1="1.11" y1="198.35" x2="142.47" y2="403.62" gradientUnits="userSpaceOnUse"><stop offset="0" stop-color="#ca4d0d"/><stop offset=".51" stop-color="#fff98a"/><stop offset="1" stop-color="#ca4d0d"/></linearGradient><clipPath id="clippath-9"><path d="M213.64,481.38l207.03-158.98c-12.88-30.7-10.53-63.96,6.61-93.41-27.68-1.75-54.85,6.44-73.61,22.16,11.04,50.34-105.89,155.1-140.03,186.14v44.08Z" style="clip-rule:evenodd; fill:none;"/></clipPath><linearGradient id="linear-gradient-10" x1="386.02" y1="226.59" x2="299.56" y2="395.03" xlink:href="#linear-gradient"/><clipPath id="clippath-10"><path d="M218.36,477.76l202.31-155.35c-12.88-30.7-10.53-63.96,6.61-93.41-13.39-.84-26.67.64-38.93,4.17-6.01,22.45-7.69,45.84-4.95,68.91-54.86,49.05-112.01,95.46-171.27,139.1.63,12.61,2.76,24.86,6.23,36.58" style="clip-rule:evenodd; fill:none;"/></clipPath><linearGradient id="linear-gradient-11" x1="426.18" y1="198.35" x2="284.81" y2="403.62" xlink:href="#linear-gradient-9"/><clipPath id="clippath-11"><polygon points="336.94 375.52 213.64 498.82 90.34 375.52 213.64 365.98 336.94 375.52" style="clip-rule:evenodd; fill:none;"/></clipPath><linearGradient id="linear-gradient-12" x1="300.18" y1="432.4" x2="125.58" y2="432.4" xlink:href="#linear-gradient-9"/><clipPath id="clippath-12"><polygon points="305.47 373.09 213.64 475.86 121.81 373.09 213.64 365.98 305.47 373.09" style="clip-rule:evenodd; fill:none;"/></clipPath><linearGradient id="linear-gradient-13" x1="301.93" y1="418.51" x2="130.95" y2="423.18" gradientUnits="userSpaceOnUse"><stop offset="0" stop-color="#ca4d0d"/><stop offset=".34" stop-color="#fff98a"/><stop offset=".53" stop-color="#fcffed"/><stop offset=".71" stop-color="#fff98a"/><stop offset="1" stop-color="#ca4d0d"/></linearGradient><clipPath id="clippath-13"><path d="M304.08,321.06l101.95,41.4c-18.65,8.16-72.01,33.96-92.32,56.87-15.44-29.3-50.43-40.12-75.29-15.64,24.8-58.05,35.6-85.51,65.66-82.63" style="clip-rule:evenodd; fill:none;"/></clipPath><linearGradient id="linear-gradient-14" x1="305.16" y1="334.17" x2="345.64" y2="416.22" xlink:href="#linear-gradient-9"/><clipPath id="clippath-14"><path d="M304.08,321.06l101.95,41.39c-10.53,4.61-32.1,14.83-52.56,26.98h0c-27.01-19.11-57.03-33.52-88.78-42.66,10.98-18.83,21.94-27.39,39.39-25.72" style="clip-rule:evenodd; fill:none;"/></clipPath><linearGradient id="linear-gradient-15" x1="388.28" y1="395.56" x2="293.49" y2="321.86" xlink:href="#linear-gradient"/><clipPath id="clippath-15"><path d="M123.2,321.06l-101.95,41.4c18.65,8.16,72.01,33.96,92.32,56.87,15.44-29.3,50.43-40.12,75.29-15.64-24.8-58.05-35.6-85.51-65.66-82.63" style="clip-rule:evenodd; fill:none;"/></clipPath><linearGradient id="linear-gradient-16" x1="122.12" y1="334.17" x2="81.64" y2="416.22" xlink:href="#linear-gradient-9"/><clipPath id="clippath-16"><path d="M123.2,321.06l-101.95,41.39c10.53,4.61,32.1,14.83,52.56,26.98h0c27.01-19.11,57.03-33.52,88.78-42.66-10.98-18.83-21.94-27.39-39.39-25.72" style="clip-rule:evenodd; fill:none;"/></clipPath><linearGradient id="linear-gradient-17" x1="39" y1="395.55" x2="133.79" y2="321.86" xlink:href="#linear-gradient"/><clipPath id="clippath-17"><path d="M210.83,152.25c14.15,11.5,21.22,17.25,21.22,17.25,36.25-9.01,66.02-29.51,82.07-56.52,16.06-27.01,16.94-58.05,2.42-85.58,0,0-15.62,6.06-46.85,18.19,16.47,42.05-8.48,87.25-58.87,106.66" style="clip-rule:evenodd; fill:none;"/></clipPath><linearGradient id="linear-gradient-18" x1="228.61" y1="122.58" x2="333.88" y2="62.59" xlink:href="#linear-gradient-5"/><clipPath id="clippath-18"><path d="M222.54,184.36c-1.87-12.13-2.8-18.19-2.8-18.19-60.48-10.34-113.22-39.13-146.56-79.99-24.03,23.63-36.04,35.45-36.04,35.45,48.84,39.23,115.47,61.77,185.41,62.74" style="clip-rule:evenodd; fill:none;"/></clipPath><linearGradient id="linear-gradient-19" x1="161.34" y1="176.8" x2="79.93" y2="69.48" xlink:href="#linear-gradient-5"/><clipPath id="clippath-19"><path d="M55.15,103.9l-18.02,17.72c41.32,33.19,95.38,54.43,153.4,60.77-.15-1.96-.35-3.92-.63-5.88-48.48-16.91-93.97-41.42-134.75-72.61h0Z" style="clip-rule:evenodd; fill:none;"/></clipPath><linearGradient id="linear-gradient-20" x1="114.06" y1="184.26" x2="113.61" y2="103.9" xlink:href="#linear-gradient-6"/><clipPath id="clippath-20"><path d="M216.45,152.25c-14.15,11.5-21.22,17.25-21.22,17.25-36.25-9.01-66.02-29.51-82.07-56.52-16.06-27.01-16.94-58.05-2.42-85.58,0,0,15.62,6.06,46.85,18.19-16.47,42.05,8.48,87.25,58.87,106.66" style="clip-rule:evenodd; fill:none;"/></clipPath><linearGradient id="linear-gradient-21" x1="198.67" y1="122.58" x2="93.4" y2="62.59" xlink:href="#linear-gradient-5"/><clipPath id="clippath-21"><path d="M216.45,152.25l-9.53,7.75c-25.83-4.13-49.01-18.71-63.9-40.57-16.8-24.65-21.13-55.73-11.71-84.04l26.27,10.2c-16.47,42.05,8.48,87.25,58.87,106.66" style="clip-rule:evenodd; fill:none;"/></clipPath><linearGradient id="linear-gradient-22" x1="214.57" y1="119.83" x2="108.87" y2="68.31" xlink:href="#linear-gradient-6"/><clipPath id="clippath-22"><rect x="101.22" y="167.02" width="224.83" height="224.83" transform="translate(-135.01 232.91) rotate(-45)" style="fill:none;"/></clipPath><linearGradient id="linear-gradient-23" x1="195.17" y1="260.96" x2="151.94" y2="217.73" xlink:href="#linear-gradient-3"/><clipPath id="clippath-23"><polygon points="75.5 279.43 213.64 115.9 351.78 279.43 213.64 442.97 75.5 279.43" style="clip-rule:evenodd; fill:none;"/></clipPath><linearGradient id="linear-gradient-24" x1="350.43" y1="279.43" x2="75.5" y2="279.43" xlink:href="#linear-gradient-6"/><clipPath id="clippath-24"><polygon points="95.79 279.43 213.64 418.95 331.49 279.43 213.64 139.92 95.79 279.43" style="clip-rule:evenodd; fill:none;"/></clipPath><linearGradient id="linear-gradient-25" x1="330.34" y1="279.43" x2="95.79" y2="279.43" gradientUnits="userSpaceOnUse"><stop offset="0" stop-color="#d8ebe9"/><stop offset=".5" stop-color="#65c9e1"/><stop offset="1" stop-color="#d8ebe9"/></linearGradient><clipPath id="clippath-25"><polygon points="116.59 279.43 213.64 164.54 310.69 279.43 213.64 394.33 116.59 279.43" style="clip-rule:evenodd; fill:none;"/></clipPath><linearGradient id="linear-gradient-26" x1="200.48" y1="268.32" x2="169.67" y2="242.29" xlink:href="#linear-gradient-3"/><clipPath id="clippath-26"><polygon points="125.16 279.43 213.64 384.18 302.12 279.43 213.64 174.69 125.16 279.43" style="clip-rule:evenodd; fill:none;"/></clipPath><linearGradient id="linear-gradient-27" x1="213.64" y1="377.75" x2="213.64" y2="174.68" xlink:href="#linear-gradient-2"/><clipPath id="clippath-27"><path d="M213.64,196.92c45.57,0,82.51,36.94,82.51,82.51s-36.94,82.51-82.51,82.51-82.51-36.94-82.51-82.51,36.94-82.51,82.51-82.51" style="clip-rule:evenodd; fill:none;"/></clipPath><linearGradient id="linear-gradient-28" x1="256.57" y1="162.23" x2="182.49" y2="364.48" gradientUnits="userSpaceOnUse"><stop offset="0" stop-color="#ca4d0d"/><stop offset=".38" stop-color="#fff98a"/><stop offset=".55" stop-color="#fcffed"/><stop offset=".78" stop-color="#fff98a"/><stop offset="1" stop-color="#ca4d0d"/></linearGradient><clipPath id="clippath-28"><path d="M213.64,201.99c42.77,0,77.44,34.67,77.44,77.44s-34.67,77.44-77.44,77.44-77.44-34.67-77.44-77.44,34.67-77.44,77.44-77.44" style="clip-rule:evenodd; fill:none;"/></clipPath><linearGradient id="linear-gradient-29" x1="213.64" y1="352.11" x2="213.64" y2="201.99" xlink:href="#linear-gradient-2"/><clipPath id="clippath-29"><path d="M210.83,152.25l9.53,7.75c25.83-4.13,49.01-18.71,63.9-40.57,16.8-24.65,21.13-55.73,11.71-84.04l-26.27,10.2c16.47,42.05-8.48,87.25-58.87,106.66" style="clip-rule:evenodd; fill:none;"/></clipPath><linearGradient id="linear-gradient-30" x1="212.71" y1="119.83" x2="318.42" y2="68.31" xlink:href="#linear-gradient-6"/><clipPath id="clippath-30"><polygon points="362.1 250.33 328.95 279.3 362.1 308.28 395.26 279.3 362.1 250.33" style="clip-rule:evenodd; fill:none;"/></clipPath><linearGradient id="linear-gradient-31" x1="327.66" y1="279.22" x2="395.26" y2="279.38" gradientUnits="userSpaceOnUse"><stop offset="0" stop-color="#e7002b"/><stop offset=".51" stop-color="#ff8fa4"/><stop offset="1" stop-color="#e7002b"/></linearGradient><clipPath id="clippath-31"><polygon points="395.26 279.3 362.1 250.33 362.1 279.3 395.26 279.3" style="clip-rule:evenodd; fill:none;"/></clipPath><linearGradient id="linear-gradient-32" x1="378.89" y1="264.54" x2="364.98" y2="282.66" gradientUnits="userSpaceOnUse"><stop offset="0" stop-color="#e7002b"/><stop offset="1" stop-color="#fefefe"/></linearGradient><clipPath id="clippath-32"><polygon points="328.95 279.3 362.1 308.28 362.1 279.3 328.95 279.3" style="clip-rule:evenodd; fill:none;"/></clipPath><linearGradient id="linear-gradient-33" x1="345.31" y1="294.07" x2="359.22" y2="275.95" xlink:href="#linear-gradient-32"/><clipPath id="clippath-33"><polygon points="65.18 250.33 32.02 279.3 65.18 308.28 98.33 279.3 65.18 250.33" style="clip-rule:evenodd; fill:none;"/></clipPath><linearGradient id="linear-gradient-34" x1="30.73" y1="279.22" x2="98.33" y2="279.38" xlink:href="#linear-gradient-31"/><clipPath id="clippath-34"><polygon points="98.33 279.3 65.18 250.33 65.18 279.3 98.33 279.3" style="clip-rule:evenodd; fill:none;"/></clipPath><linearGradient id="linear-gradient-35" x1="81.97" y1="264.54" x2="68.05" y2="282.66" xlink:href="#linear-gradient-32"/><clipPath id="clippath-35"><polygon points="32.02 279.3 65.18 308.28 65.18 279.3 32.02 279.3" style="clip-rule:evenodd; fill:none;"/></clipPath><linearGradient id="linear-gradient-36" x1="48.39" y1="294.07" x2="62.3" y2="275.95" xlink:href="#linear-gradient-32"/><clipPath id="clippath-36"><polygon points="184.66 442.71 213.64 475.86 242.62 442.71 213.64 409.56 184.66 442.71" style="clip-rule:evenodd; fill:none;"/></clipPath><linearGradient id="linear-gradient-37" x1="213.56" y1="477.15" x2="213.72" y2="409.56" xlink:href="#linear-gradient-31"/><clipPath id="clippath-37"><polygon points="213.64 409.56 184.66 442.71 213.64 442.71 213.64 409.56" style="clip-rule:evenodd; fill:none;"/></clipPath><linearGradient id="linear-gradient-38" x1="198.87" y1="425.92" x2="216.99" y2="439.83" xlink:href="#linear-gradient-32"/><clipPath id="clippath-38"><polygon points="213.64 475.86 242.62 442.71 213.64 442.71 213.64 475.86" style="clip-rule:evenodd; fill:none;"/></clipPath><linearGradient id="linear-gradient-39" x1="228.41" y1="459.5" x2="210.29" y2="445.59" xlink:href="#linear-gradient-32"/><clipPath id="clippath-39"><polygon points="283.92 279.43 302.12 268.01 320.31 279.43 302.12 290.85 283.92 279.43" style="clip-rule:evenodd; fill:none;"/></clipPath><linearGradient id="linear-gradient-40" x1="302.1" y1="267.56" x2="302.13" y2="290.85" xlink:href="#linear-gradient-31"/><clipPath id="clippath-40"><polygon points="302.12 268.01 320.31 279.43 302.12 279.43 302.12 268.01" style="clip-rule:evenodd; fill:none;"/></clipPath><linearGradient id="linear-gradient-41" x1="311.29" y1="273.59" x2="306.49" y2="282.29" xlink:href="#linear-gradient-32"/><clipPath id="clippath-41"><polygon points="302.12 290.85 283.92 279.43 302.12 279.43 302.12 290.85" style="clip-rule:evenodd; fill:none;"/></clipPath><linearGradient id="linear-gradient-42" x1="292.95" y1="285.27" x2="297.75" y2="276.57" xlink:href="#linear-gradient-32"/><clipPath id="clippath-42"><polygon points="106.97 279.43 125.16 268.01 143.36 279.43 125.16 290.85 106.97 279.43" style="clip-rule:evenodd; fill:none;"/></clipPath><linearGradient id="linear-gradient-43" x1="125.15" y1="267.56" x2="125.18" y2="290.85" xlink:href="#linear-gradient-31"/><clipPath id="clippath-43"><polygon points="125.16 268.01 143.36 279.43 125.16 279.43 125.16 268.01" style="clip-rule:evenodd; fill:none;"/></clipPath><linearGradient id="linear-gradient-44" x1="134.33" y1="273.59" x2="129.53" y2="282.29" xlink:href="#linear-gradient-32"/><clipPath id="clippath-44"><polygon points="125.16 290.85 106.97 279.43 125.16 279.43 125.16 290.85" style="clip-rule:evenodd; fill:none;"/></clipPath><linearGradient id="linear-gradient-45" x1="115.99" y1="285.27" x2="120.8" y2="276.57" xlink:href="#linear-gradient-32"/><clipPath id="clippath-45"><polygon points="213.64 402.37 202.22 384.18 213.64 365.98 225.06 384.18 213.64 402.37" style="clip-rule:evenodd; fill:none;"/></clipPath><linearGradient id="linear-gradient-46" x1="201.77" y1="384.19" x2="225.06" y2="384.16" xlink:href="#linear-gradient-31"/><clipPath id="clippath-46"><polygon points="202.22 384.18 213.64 365.98 213.64 384.18 202.22 384.18" style="clip-rule:evenodd; fill:none;"/></clipPath><linearGradient id="linear-gradient-47" x1="207.8" y1="375.01" x2="216.5" y2="379.81" xlink:href="#linear-gradient-32"/><clipPath id="clippath-47"><polygon points="225.06 384.18 213.64 402.37 213.64 384.18 225.06 384.18" style="clip-rule:evenodd; fill:none;"/></clipPath><linearGradient id="linear-gradient-48" x1="219.49" y1="393.35" x2="210.78" y2="388.55" xlink:href="#linear-gradient-32"/><clipPath id="clippath-48"><polygon points="213.64 50.17 202.22 31.97 213.64 13.78 225.06 31.97 213.64 50.17" style="clip-rule:evenodd; fill:none;"/></clipPath><linearGradient id="linear-gradient-49" x1="201.78" y1="31.99" x2="225.06" y2="31.96" xlink:href="#linear-gradient-31"/><clipPath id="clippath-49"><polygon points="202.22 31.97 213.64 13.78 213.64 31.97 202.22 31.97" style="clip-rule:evenodd; fill:none;"/></clipPath><linearGradient id="linear-gradient-50" x1="207.8" y1="22.8" x2="216.5" y2="27.6" xlink:href="#linear-gradient-32"/><clipPath id="clippath-50"><polygon points="225.06 31.97 213.64 50.17 213.64 31.97 225.06 31.97" style="clip-rule:evenodd; fill:none;"/></clipPath><linearGradient id="linear-gradient-51" x1="219.49" y1="41.14" x2="210.78" y2="36.34" xlink:href="#linear-gradient-32"/><clipPath id="clippath-51"><polygon points="222.94 238.36 222.94 247.59 222.94 311.28 222.94 320.51 226.55 329.74 222.94 329.74 204.34 329.74 200.73 329.74 204.34 320.51 204.34 311.28 204.34 247.59 204.34 238.36 200.73 229.13 204.34 229.13 222.94 229.13 226.55 229.13 222.94 238.36" style="clip-rule:evenodd; fill:none;"/></clipPath><linearGradient id="linear-gradient-52" x1="201.7" y1="329.13" x2="225.73" y2="229.1" xlink:href="#linear-gradient-4"/><clipPath id="clippath-52"><polygon points="223.91 230.93 203.37 230.93 206.14 238.02 206.14 320.85 203.37 327.93 223.91 327.93 221.14 320.85 221.14 238.02 223.91 230.93" style="clip-rule:evenodd; fill:none;"/></clipPath><linearGradient id="linear-gradient-53" x1="216.28" y1="330.1" x2="211.12" y2="231.06" xlink:href="#linear-gradient-6"/><clipPath id="clippath-53"><path d="M213.64,59.73c34.81,0,63.02,28.22,63.02,63.02s-28.22,63.02-63.02,63.02-63.02-28.22-63.02-63.02,28.22-63.02,63.02-63.02" style="clip-rule:evenodd; fill:none;"/></clipPath><linearGradient id="linear-gradient-54" x1="209.6" y1="188.36" x2="217.74" y2="56.3" xlink:href="#linear-gradient-4"/><clipPath id="clippath-54"><path d="M213.64,64.59c32.12,0,58.16,26.04,58.16,58.16s-26.04,58.16-58.16,58.16-58.16-26.04-58.16-58.16,26.04-58.16,58.16-58.16" style="clip-rule:evenodd; fill:none;"/></clipPath><linearGradient id="linear-gradient-55" x1="213.64" y1="177.34" x2="213.64" y2="64.59" xlink:href="#linear-gradient-2"/><clipPath id="clippath-55"><path d="M189.64,90.47c-3.39,6.78-4.94,7.6-12.54,7.35-1.22,6.63,5.38,9.18,11.75,9.03,4.74-.11,7.01-1.17,11.03-3.55,4.98-2.95,12.04-3.2,13.73,6.57-1.01-.79-2.93-1.26-4.14-1.28,10.91,10.18-5.85,25.46-13.61,12.16-1.69,15.88,33.06,16.07,38.7-5.76,2.11-8.5-.38-17.49-6.57-23.68-6.19-6.19-15.18-8.69-23.68-6.58-.87-5.1-4.42-9.34-9.29-11.08,1.72,4.04,1.63,8.62-.23,12.6-2.31.46-4.24,2.05-5.13,4.23" style="clip-rule:evenodd; fill:none;"/></clipPath><linearGradient id="linear-gradient-56" x1="229.12" y1="120.61" x2="170.79" y2="81.34" xlink:href="#linear-gradient-6"/><clipPath id="clippath-56"><path d="M177.11,97.82c-1.22,6.63,5.38,9.18,11.75,9.03,4.74-.11,7.01-1.17,11.03-3.55,4.98-2.95,12.04-3.2,13.73,6.57-1.01-.79-2.93-1.26-4.14-1.28,10.91,10.18-5.85,25.46-13.61,12.16,2.18,10.16,16.44,9.39,22.06,2.37,2.91-3.63,3.79-8.47,2.35-12.89,0,0,1.04.39,3.13,1.18.59-6.26-2.43-12.3-7.78-15.6-5.35-3.29-12.11-3.27-17.43.07-2.5,3.12-6.15,5.09-10.13,5.45-3.98.37-7.93-.9-10.96-3.51" style="clip-rule:evenodd; fill:none;"/></clipPath><linearGradient id="linear-gradient-57" x1="199.2" y1="129.13" x2="200.91" y2="92.37" xlink:href="#linear-gradient-4"/><clipPath id="clippath-57"><path d="M195.51,155.65c-15.81-7.7-16.85-31.89-2.16-34.43-1.76,5.9,3.71,11.72,11.83,11.77-1.79,1.52-4.12,2.24-6.45,2,15.21,2.89,20.49-4.36,32.16-3.92-1.49.46-2.83,1.32-3.87,2.48,9.44-1.27,18.69,3.37,23.32,11.69-1.64-.75-3.39-1.23-5.18-1.4,4.51,5.62,5.31,13.35,2.04,19.77-4.9-6.15-12.82-9.05-20.53-7.54.64,1.16,1.44,2.22,2.39,3.15-12.03,3.34-24.93.4-34.33-7.82-.36,1.46-.07,3.01.79,4.24" style="clip-rule:evenodd; fill:none;"/></clipPath><linearGradient id="linear-gradient-58" x1="234.3" y1="163.59" x2="188.75" y2="114.77" xlink:href="#linear-gradient-6"/><clipPath id="clippath-58"><path d="M195.51,155.65c-15.81-7.7-16.85-31.89-2.16-34.43-4.06,3.62-5.4,9.4-3.35,14.43,2.05,5.04,7.05,8.23,12.48,7.98,13.41.37,27.3-5.66,37.7,3.75,4.58,4.14,7.13,10.06,7.01,16.23-4.9-6.15-12.82-9.05-20.53-7.54.64,1.16,1.44,2.22,2.39,3.15-12.03,3.34-24.93.4-34.33-7.82-.36,1.46-.07,3.01.79,4.24" style="clip-rule:evenodd; fill:none;"/></clipPath><linearGradient id="linear-gradient-59" x1="212.09" y1="164.46" x2="213.9" y2="119.94" xlink:href="#linear-gradient-4"/></defs><g id="Layer_1"><g style="clip-path:url(#clippath);"><rect x="56.21" width="314.87" height="314.87" style="fill:url(#linear-gradient);"/></g><g style="clip-path:url(#clippath-1);"><rect x="66.44" y="10.24" width="294.4" height="294.4" style="fill:url(#linear-gradient-2);"/></g><g style="clip-path:url(#clippath-2);"><rect x="38.34" y="119.56" width="350.61" height="306.57" style="fill:url(#linear-gradient-3);"/></g><g style="clip-path:url(#clippath-3);"><rect x="348.84" y="120.6" width="40.1" height="143.44" style="fill:url(#linear-gradient-4);"/></g><g style="clip-path:url(#clippath-4);"><rect x="204.75" y="86.17" width="185.4" height="98.18" style="fill:url(#linear-gradient-5);"/></g><g style="clip-path:url(#clippath-5);"><rect x="236.75" y="103.9" width="153.4" height="78.5" style="fill:url(#linear-gradient-6);"/></g><g style="clip-path:url(#clippath-6);"><rect x="37.13" y="120.6" width="40.1" height="143.44" style="fill:url(#linear-gradient-7);"/></g><g style="clip-path:url(#clippath-7);"><rect y="227.25" width="213.64" height="254.13" style="fill:url(#linear-gradient-8);"/></g><g style="clip-path:url(#clippath-8);"><rect y="228.15" width="215.15" height="249.61" style="fill:url(#linear-gradient-9);"/></g><g style="clip-path:url(#clippath-9);"><rect x="213.64" y="227.25" width="213.64" height="254.13" style="fill:url(#linear-gradient-10);"/></g><g style="clip-path:url(#clippath-10);"><rect x="212.13" y="228.15" width="215.15" height="249.61" style="fill:url(#linear-gradient-11);"/></g><g style="clip-path:url(#clippath-11);"><rect x="90.34" y="365.98" width="246.6" height="132.84" style="fill:url(#linear-gradient-12);"/></g><g style="clip-path:url(#clippath-12);"><rect x="121.81" y="365.98" width="183.67" height="109.88" style="fill:url(#linear-gradient-13);"/></g><g style="clip-path:url(#clippath-13);"><rect x="238.42" y="318.18" width="167.61" height="101.15" style="fill:url(#linear-gradient-14);"/></g><g style="clip-path:url(#clippath-14);"><rect x="264.69" y="319.39" width="141.34" height="70.05" style="fill:url(#linear-gradient-15);"/></g><g style="clip-path:url(#clippath-15);"><rect x="21.25" y="318.18" width="167.61" height="101.15" style="fill:url(#linear-gradient-16);"/></g><g style="clip-path:url(#clippath-16);"><rect x="21.25" y="319.39" width="141.34" height="70.05" style="fill:url(#linear-gradient-17);"/></g><g style="clip-path:url(#clippath-17);"><rect x="210.83" y="27.4" width="120.23" height="142.1" style="fill:url(#linear-gradient-18);"/></g><g style="clip-path:url(#clippath-18);"><rect x="37.13" y="86.17" width="185.41" height="98.18" style="fill:url(#linear-gradient-19);"/></g><g style="clip-path:url(#clippath-19);"><rect x="37.13" y="103.9" width="153.4" height="78.5" style="fill:url(#linear-gradient-20);"/></g><g style="clip-path:url(#clippath-20);"><rect x="96.22" y="27.4" width="120.23" height="142.1" style="fill:url(#linear-gradient-21);"/></g><g style="clip-path:url(#clippath-21);"><rect x="121.89" y="35.4" width="94.56" height="124.61" style="fill:url(#linear-gradient-22);"/></g><g style="clip-path:url(#clippath-22);"><rect x="54.66" y="120.45" width="317.96" height="317.96" style="fill:url(#linear-gradient-23);"/></g><g style="clip-path:url(#clippath-23);"><rect x="75.5" y="115.9" width="276.27" height="327.07" style="fill:url(#linear-gradient-24);"/></g><g style="clip-path:url(#clippath-24);"><rect x="95.79" y="139.92" width="235.7" height="279.03" style="fill:url(#linear-gradient-25);"/></g><g style="clip-path:url(#clippath-25);"><rect x="116.59" y="164.54" width="194.1" height="229.79" style="fill:url(#linear-gradient-26);"/></g><g style="clip-path:url(#clippath-26);"><rect x="125.16" y="174.69" width="176.96" height="209.49" style="fill:url(#linear-gradient-27);"/></g><g style="clip-path:url(#clippath-27);"><rect x="131.13" y="196.92" width="165.02" height="165.02" style="fill:url(#linear-gradient-28);"/></g><g style="clip-path:url(#clippath-28);"><rect x="136.2" y="201.99" width="154.88" height="154.88" style="fill:url(#linear-gradient-29);"/></g><g style="clip-path:url(#clippath-29);"><rect x="210.83" y="35.4" width="94.56" height="124.61" style="fill:url(#linear-gradient-30);"/></g><g style="clip-path:url(#clippath-30);"><rect x="328.95" y="250.33" width="66.31" height="57.95" style="fill:url(#linear-gradient-31);"/></g><g style="clip-path:url(#clippath-31);"><rect x="362.1" y="250.33" width="33.15" height="28.98" style="fill:url(#linear-gradient-32);"/></g><g style="clip-path:url(#clippath-32);"><rect x="328.95" y="279.3" width="33.15" height="28.98" style="fill:url(#linear-gradient-33);"/></g><g style="clip-path:url(#clippath-33);"><rect x="32.02" y="250.33" width="66.31" height="57.95" style="fill:url(#linear-gradient-34);"/></g><g style="clip-path:url(#clippath-34);"><rect x="65.18" y="250.33" width="33.15" height="28.98" style="fill:url(#linear-gradient-35);"/></g><g style="clip-path:url(#clippath-35);"><rect x="32.02" y="279.3" width="33.15" height="28.98" style="fill:url(#linear-gradient-36);"/></g><g style="clip-path:url(#clippath-36);"><rect x="184.66" y="409.56" width="57.95" height="66.31" style="fill:url(#linear-gradient-37);"/></g><g style="clip-path:url(#clippath-37);"><rect x="184.66" y="409.56" width="28.98" height="33.15" style="fill:url(#linear-gradient-38);"/></g><g style="clip-path:url(#clippath-38);"><rect x="213.64" y="442.71" width="28.98" height="33.15" style="fill:url(#linear-gradient-39);"/></g><g style="clip-path:url(#clippath-39);"><rect x="283.92" y="268.01" width="36.39" height="22.84" style="fill:url(#linear-gradient-40);"/></g><g style="clip-path:url(#clippath-40);"><rect x="302.12" y="268.01" width="18.19" height="11.42" style="fill:url(#linear-gradient-41);"/></g><g style="clip-path:url(#clippath-41);"><rect x="283.92" y="279.43" width="18.19" height="11.42" style="fill:url(#linear-gradient-42);"/></g><g style="clip-path:url(#clippath-42);"><rect x="106.97" y="268.01" width="36.39" height="22.84" style="fill:url(#linear-gradient-43);"/></g><g style="clip-path:url(#clippath-43);"><rect x="125.16" y="268.01" width="18.19" height="11.42" style="fill:url(#linear-gradient-44);"/></g><g style="clip-path:url(#clippath-44);"><rect x="106.97" y="279.43" width="18.19" height="11.42" style="fill:url(#linear-gradient-45);"/></g><g style="clip-path:url(#clippath-45);"><rect x="202.22" y="365.98" width="22.84" height="36.39" style="fill:url(#linear-gradient-46);"/></g><g style="clip-path:url(#clippath-46);"><rect x="202.22" y="365.98" width="11.42" height="18.19" style="fill:url(#linear-gradient-47);"/></g><g style="clip-path:url(#clippath-47);"><rect x="213.64" y="384.18" width="11.42" height="18.19" style="fill:url(#linear-gradient-48);"/></g><g style="clip-path:url(#clippath-48);"><rect x="202.22" y="13.78" width="22.84" height="36.39" style="fill:url(#linear-gradient-49);"/></g><g style="clip-path:url(#clippath-49);"><rect x="202.22" y="13.78" width="11.42" height="18.19" style="fill:url(#linear-gradient-50);"/></g><g style="clip-path:url(#clippath-50);"><rect x="213.64" y="31.97" width="11.42" height="18.19" style="fill:url(#linear-gradient-51);"/></g><g style="clip-path:url(#clippath-51);"><rect x="200.73" y="229.13" width="25.82" height="100.61" style="fill:url(#linear-gradient-52);"/></g><g style="clip-path:url(#clippath-52);"><rect x="203.37" y="230.93" width="20.54" height="97" style="fill:url(#linear-gradient-53);"/></g><g style="clip-path:url(#clippath-53);"><rect x="150.62" y="59.73" width="126.04" height="126.04" style="fill:url(#linear-gradient-54);"/></g><g style="clip-path:url(#clippath-54);"><rect x="155.48" y="64.59" width="116.31" height="116.31" style="fill:url(#linear-gradient-55);"/></g><g style="clip-path:url(#clippath-55);"><rect x="175.88" y="73.64" width="60.79" height="63.18" style="fill:url(#linear-gradient-56);"/></g><g style="clip-path:url(#clippath-56);"><rect x="175.88" y="92.52" width="48.11" height="41.53" style="fill:url(#linear-gradient-57);"/></g><g style="clip-path:url(#clippath-57);"><rect x="178.66" y="121.22" width="71.79" height="42.4" style="fill:url(#linear-gradient-58);"/></g><g style="clip-path:url(#clippath-58);"><rect x="178.66" y="121.22" width="68.65" height="42.4" style="fill:url(#linear-gradient-59);"/></g></g></svg>