<?xml version="1.0" encoding="UTF-8"?><svg id="Layer_3" xmlns="http://www.w3.org/2000/svg" xmlns:xlink="http://www.w3.org/1999/xlink" viewBox="0 0 4282.91 5000"><defs><clipPath id="clippath"><path d="M2141.46,0c871.54,0,1578.07,706.52,1578.07,1578.06s-706.53,1578.06-1578.07,1578.06-1578.06-706.52-1578.06-1578.06S1269.91,0,2141.46,0" style="clip-rule:evenodd; fill:none;"/></clipPath><linearGradient id="linear-gradient" x1="3790.15" y1="2200.05" x2="817.15" y2="1078.45" gradientUnits="userSpaceOnUse"><stop offset="0" stop-color="#ca4d0d"/><stop offset=".38" stop-color="#fff98a"/><stop offset=".55" stop-color="#fcffed"/><stop offset=".85" stop-color="#fff98a"/><stop offset="1" stop-color="#ca4d0d"/></linearGradient><clipPath id="clippath-1"><path d="M2141.46,102.6c814.88,0,1475.47,660.59,1475.47,1475.47s-660.59,1475.47-1475.47,1475.47-1475.47-660.59-1475.47-1475.47S1326.58,102.6,2141.46,102.6" style="clip-rule:evenodd; fill:none;"/></clipPath><linearGradient id="linear-gradient-2" x1="2141.43" y1="2962.93" x2="2141.48" y2="102.59" gradientUnits="userSpaceOnUse"><stop offset="0" stop-color="#030a12"/><stop offset="1" stop-color="#032c45"/></linearGradient><clipPath id="clippath-2"><path d="M2141.46,3738.35c-693.01-926.21-1039.51-1389.31-1039.51-1389.31-116.71-266.69-155.97-568.14-112.22-861.47-154.28-190.16-377.78-289.1-605.44-267.99,140.95,356.02,160.31,758.3,54.35,1129.46,1135.21,1281.58,1702.81,1922.36,1702.81,1922.36,0,0,567.6-640.79,1702.82-1922.36-105.96-371.16-86.6-773.44,54.35-1129.46-227.65-21.11-451.16,77.83-605.44,267.99,43.75,293.33,4.49,594.78-112.22,861.47,0,0-346.5,463.1-1039.51,1389.31" style="clip-rule:evenodd; fill:none;"/></clipPath><linearGradient id="linear-gradient-3" x1="2141.46" y1="2389.21" x2="2141.46" y2="1558.46" gradientUnits="userSpaceOnUse"><stop offset="0" stop-color="#136396"/><stop offset=".67" stop-color="#aee3eb"/><stop offset="1" stop-color="#136396"/></linearGradient><clipPath id="clippath-3"><path d="M3580.69,2646.6l263.58-297.56c-105.95-371.16-86.59-773.44,54.36-1129.46-116-10.75-230.93,9.68-336.17,57.45-65.79,454.67-59.64,916.83,18.24,1369.57" style="clip-rule:evenodd; fill:none;"/></clipPath><linearGradient id="linear-gradient-4" x1="3533.32" y1="2638.44" x2="3863.36" y2="1210.95" gradientUnits="userSpaceOnUse"><stop offset="0" stop-color="#aee3eb"/><stop offset=".49" stop-color="#136396"/><stop offset="1" stop-color="#aee3eb"/></linearGradient><clipPath id="clippath-4"><path d="M2052.31,1847.95c18.74-121.58,28.1-182.37,28.1-182.37,606.25-103.67,1134.88-392.19,1469.07-801.79,240.84,236.87,361.26,355.31,361.26,355.31-489.57,393.18-1157.4,619.16-1858.42,628.86" style="clip-rule:evenodd; fill:none;"/></clipPath><linearGradient id="linear-gradient-5" x1="2665.7" y1="1772.21" x2="3481.73" y2="696.45" gradientUnits="userSpaceOnUse"><stop offset="0" stop-color="#d8ebe9"/><stop offset=".44" stop-color="#65c9e1"/><stop offset="1" stop-color="#d8ebe9"/></linearGradient><clipPath id="clippath-5"><path d="M3730.11,1041.44l180.62,177.65c-414.21,332.66-956.04,545.62-1537.61,609.17,1.49-19.6,3.53-39.25,6.26-58.97,485.96-169.51,941.89-415.19,1350.72-727.85h0Z" style="clip-rule:evenodd; fill:none;"/></clipPath><linearGradient id="linear-gradient-6" x1="2805.52" y1="1878.31" x2="3621.59" y2="802.54" gradientUnits="userSpaceOnUse"><stop offset="0" stop-color="#65c9e1"/><stop offset=".44" stop-color="#d8ebe9"/><stop offset="1" stop-color="#65c9e1"/></linearGradient><clipPath id="clippath-6"><path d="M690.12,2646.6l-263.58-297.56c105.95-371.16,86.6-773.44-54.36-1129.46,116.01-10.75,230.93,9.68,336.17,57.45,65.79,454.67,59.63,916.83-18.24,1369.57" style="clip-rule:evenodd; fill:none;"/></clipPath><linearGradient id="linear-gradient-7" x1="737.49" y1="2638.44" x2="407.45" y2="1210.95" xlink:href="#linear-gradient-4"/><clipPath id="clippath-7"><path d="M2141.46,4825.17L66.24,3231.63c129.13-307.68,105.54-641.15-66.24-936.28,277.44-17.5,549.83,64.52,737.85,222.15-110.65,504.58,1061.41,1554.7,1403.6,1865.79v441.87Z" style="clip-rule:evenodd; fill:none;"/></clipPath><linearGradient id="linear-gradient-8" x1="413.57" y1="2271.24" x2="1280.21" y2="3959.63" xlink:href="#linear-gradient"/><clipPath id="clippath-8"><path d="M2094.14,4788.83L66.24,3231.63c129.13-307.68,105.54-641.15-66.24-936.28,134.27-8.47,267.35,6.38,390.26,41.81,60.21,225.02,77.05,459.44,49.62,690.75,549.9,491.62,1122.79,956.89,1716.75,1394.25-6.31,126.37-27.71,249.22-62.49,366.66" style="clip-rule:evenodd; fill:none;"/></clipPath><linearGradient id="linear-gradient-9" x1="11.09" y1="1988.22" x2="1428.06" y2="4045.7" gradientUnits="userSpaceOnUse"><stop offset="0" stop-color="#ca4d0d"/><stop offset=".51" stop-color="#fff98a"/><stop offset="1" stop-color="#ca4d0d"/></linearGradient><clipPath id="clippath-9"><path d="M2141.46,4825.17l2075.22-1593.54c-129.13-307.68-105.54-641.15,66.24-936.28-277.44-17.5-549.83,64.52-737.85,222.15,110.65,504.58-1061.41,1554.7-1403.61,1865.79v441.87Z" style="clip-rule:evenodd; fill:none;"/></clipPath><linearGradient id="linear-gradient-10" x1="3869.35" y1="2271.24" x2="3002.69" y2="3959.63" xlink:href="#linear-gradient"/><clipPath id="clippath-10"><path d="M2188.78,4788.83l2027.9-1557.21c-129.13-307.68-105.54-641.15,66.24-936.28-134.27-8.47-267.35,6.38-390.26,41.81-60.21,225.02-77.05,459.44-49.62,690.75-549.9,491.62-1122.79,956.89-1716.75,1394.25,6.31,126.37,27.71,249.22,62.49,366.66" style="clip-rule:evenodd; fill:none;"/></clipPath><linearGradient id="linear-gradient-11" x1="4271.86" y1="1988.22" x2="2854.84" y2="4045.69" xlink:href="#linear-gradient-9"/><clipPath id="clippath-11"><polygon points="3377.37 3764.09 2141.46 5000 905.55 3764.09 2141.46 3668.48 3377.37 3764.09" style="clip-rule:evenodd; fill:none;"/></clipPath><linearGradient id="linear-gradient-12" x1="3008.86" y1="4334.24" x2="1258.77" y2="4334.24" xlink:href="#linear-gradient-9"/><clipPath id="clippath-12"><polygon points="3061.96 3739.69 2141.46 4769.87 1220.96 3739.69 2141.46 3668.48 3061.96 3739.69" style="clip-rule:evenodd; fill:none;"/></clipPath><linearGradient id="linear-gradient-13" x1="3026.48" y1="4194.99" x2="1312.61" y2="4241.83" gradientUnits="userSpaceOnUse"><stop offset="0" stop-color="#ca4d0d"/><stop offset=".34" stop-color="#fff98a"/><stop offset=".53" stop-color="#fcffed"/><stop offset=".71" stop-color="#fff98a"/><stop offset="1" stop-color="#ca4d0d"/></linearGradient><clipPath id="clippath-13"><path d="M3048.01,3218.17l1021.87,414.93c-186.98,81.81-721.77,340.4-925.36,570.03-154.73-293.7-505.5-402.1-754.69-156.75,248.63-581.84,356.87-857.09,658.19-828.2" style="clip-rule:evenodd; fill:none;"/></clipPath><linearGradient id="linear-gradient-14" x1="3058.84" y1="3349.58" x2="3464.57" y2="4172.01" xlink:href="#linear-gradient-9"/><clipPath id="clippath-14"><path d="M3048.01,3218.18l1021.87,414.93c-105.51,46.17-321.78,148.62-526.79,270.41h-.02c-270.74-191.53-571.61-336-889.91-427.57,110.04-188.76,219.9-274.54,394.85-257.77" style="clip-rule:evenodd; fill:none;"/></clipPath><linearGradient id="linear-gradient-15" x1="3891.95" y1="3964.88" x2="2941.86" y2="3226.17" xlink:href="#linear-gradient"/><clipPath id="clippath-15"><path d="M1234.91,3218.17l-1021.86,414.93c186.98,81.81,721.77,340.4,925.36,570.03,154.73-293.7,505.5-402.1,754.69-156.75-248.63-581.84-356.86-857.09-658.19-828.2" style="clip-rule:evenodd; fill:none;"/></clipPath><linearGradient id="linear-gradient-16" x1="1224.07" y1="3349.58" x2="818.34" y2="4172.01" xlink:href="#linear-gradient-9"/><clipPath id="clippath-16"><path d="M1234.91,3218.17l-1021.87,414.93c105.52,46.17,321.78,148.62,526.79,270.41h.02c270.75-191.54,571.61-336,889.91-427.57-110.04-188.76-219.89-274.54-394.85-257.77" style="clip-rule:evenodd; fill:none;"/></clipPath><linearGradient id="linear-gradient-17" x1="390.95" y1="3964.88" x2="1341.05" y2="3226.17" xlink:href="#linear-gradient"/><clipPath id="clippath-17"><path d="M2113.32,1526.13c141.83,115.3,212.74,172.94,212.74,172.94,363.34-90.36,661.71-295.84,822.68-566.54,160.95-270.7,169.75-581.83,24.26-857.85,0,0-156.55,60.79-469.63,182.37,165.07,421.51-84.97,874.54-590.05,1069.07" style="clip-rule:evenodd; fill:none;"/></clipPath><linearGradient id="linear-gradient-18" x1="2291.55" y1="1228.71" x2="3346.73" y2="627.39" xlink:href="#linear-gradient-5"/><clipPath id="clippath-18"><path d="M2230.61,1847.95c-18.74-121.58-28.1-182.37-28.1-182.37-606.25-103.67-1134.88-392.19-1469.07-801.79-240.84,236.87-361.26,355.31-361.26,355.31,489.57,393.18,1157.4,619.16,1858.42,628.86" style="clip-rule:evenodd; fill:none;"/></clipPath><linearGradient id="linear-gradient-19" x1="1617.24" y1="1772.22" x2="801.18" y2="696.45" xlink:href="#linear-gradient-5"/><clipPath id="clippath-19"><path d="M552.81,1041.44l-180.62,177.65c414.21,332.66,956.05,545.62,1537.61,609.17-1.5-19.6-3.53-39.25-6.26-58.97-485.96-169.51-941.9-415.19-1350.72-727.85h0Z" style="clip-rule:evenodd; fill:none;"/></clipPath><linearGradient id="linear-gradient-20" x1="1477.39" y1="1878.3" x2="661.33" y2="802.54" xlink:href="#linear-gradient-6"/><clipPath id="clippath-20"><path d="M2169.61,1526.13c-141.83,115.3-212.74,172.94-212.74,172.94-363.34-90.36-661.71-295.84-822.68-566.54-160.95-270.7-169.75-581.83-24.26-857.85,0,0,156.55,60.79,469.63,182.37-165.07,421.51,84.97,874.54,590.05,1069.07" style="clip-rule:evenodd; fill:none;"/></clipPath><linearGradient id="linear-gradient-21" x1="1991.4" y1="1228.72" x2="936.22" y2="627.4" xlink:href="#linear-gradient-5"/><clipPath id="clippath-21"><path d="M2169.61,1526.13l-95.52,77.65c-258.89-41.41-491.26-187.56-640.55-406.65-168.38-247.1-211.77-558.63-117.33-842.35l263.36,102.27c-165.07,421.51,84.97,874.54,590.05,1069.08" style="clip-rule:evenodd; fill:none;"/></clipPath><linearGradient id="linear-gradient-22" x1="2150.8" y1="1201.09" x2="1091.23" y2="684.69" xlink:href="#linear-gradient-6"/><clipPath id="clippath-22"><rect x="1014.64" y="1674.1" width="2253.63" height="2253.63" transform="translate(-1353.33 2334.61) rotate(-45)" style="fill:none;"/></clipPath><linearGradient id="linear-gradient-23" x1="1956.31" y1="2615.77" x2="1522.94" y2="2182.4" xlink:href="#linear-gradient-3"/><clipPath id="clippath-23"><polygon points="756.82 2800.92 2141.46 1161.7 3526.09 2800.92 2141.46 4440.14 756.82 2800.92" style="clip-rule:evenodd; fill:none;"/></clipPath><linearGradient id="linear-gradient-24" x1="3512.57" y1="2800.94" x2="756.81" y2="2800.89" xlink:href="#linear-gradient-6"/><clipPath id="clippath-24"><polygon points="960.19 2800.92 2141.46 4199.38 3322.72 2800.92 2141.46 1402.46 960.19 2800.92" style="clip-rule:evenodd; fill:none;"/></clipPath><linearGradient id="linear-gradient-25" x1="3311.21" y1="2800.94" x2="960.21" y2="2800.89" gradientUnits="userSpaceOnUse"><stop offset="0" stop-color="#d8ebe9"/><stop offset=".5" stop-color="#65c9e1"/><stop offset="1" stop-color="#d8ebe9"/></linearGradient><clipPath id="clippath-25"><polygon points="1168.64 2800.92 2141.46 1649.23 3114.27 2800.92 2141.46 3952.6 1168.64 2800.92" style="clip-rule:evenodd; fill:none;"/></clipPath><linearGradient id="linear-gradient-26" x1="2009.54" y1="2689.49" x2="1700.74" y2="2428.64" xlink:href="#linear-gradient-3"/><clipPath id="clippath-26"><polygon points="1254.59 2800.92 2141.46 3850.85 3028.32 2800.92 2141.46 1750.98 1254.59 2800.92" style="clip-rule:evenodd; fill:none;"/></clipPath><linearGradient id="linear-gradient-27" x1="2141.43" y1="3786.38" x2="2141.48" y2="1750.96" xlink:href="#linear-gradient-2"/><clipPath id="clippath-27"><path d="M2113.32,1526.13l95.53,77.65c258.89-41.41,491.26-187.56,640.55-406.65,168.37-247.1,211.77-558.63,117.33-842.35l-263.36,102.27c165.07,421.51-84.97,874.54-590.05,1069.08" style="clip-rule:evenodd; fill:none;"/></clipPath><linearGradient id="linear-gradient-28" x1="2132.16" y1="1201.09" x2="3191.68" y2="684.69" xlink:href="#linear-gradient-6"/><clipPath id="clippath-28"><polygon points="3629.59 2509.17 3297.27 2799.63 3629.59 3090.08 3961.91 2799.63 3629.59 2509.17" style="clip-rule:evenodd; fill:none;"/></clipPath><linearGradient id="linear-gradient-29" x1="3284.3" y1="2798.8" x2="3961.91" y2="2800.42" gradientUnits="userSpaceOnUse"><stop offset="0" stop-color="#e7002b"/><stop offset=".51" stop-color="#ff8fa4"/><stop offset="1" stop-color="#e7002b"/></linearGradient><clipPath id="clippath-29"><polygon points="3961.91 2799.63 3629.59 2509.17 3629.59 2799.63 3961.91 2799.63" style="clip-rule:evenodd; fill:none;"/></clipPath><linearGradient id="linear-gradient-30" x1="3797.88" y1="2651.63" x2="3658.41" y2="2833.24" gradientUnits="userSpaceOnUse"><stop offset="0" stop-color="#e7002b"/><stop offset="1" stop-color="#fefefe"/></linearGradient><clipPath id="clippath-30"><polygon points="3297.27 2799.63 3629.59 3090.08 3629.59 2799.63 3297.27 2799.63" style="clip-rule:evenodd; fill:none;"/></clipPath><linearGradient id="linear-gradient-31" x1="3461.29" y1="2947.64" x2="3600.76" y2="2766.03" xlink:href="#linear-gradient-30"/><clipPath id="clippath-31"><polygon points="653.33 2509.17 321.01 2799.63 653.33 3090.08 985.65 2799.63 653.33 2509.17" style="clip-rule:evenodd; fill:none;"/></clipPath><linearGradient id="linear-gradient-32" x1="308.07" y1="2798.8" x2="985.63" y2="2800.42" xlink:href="#linear-gradient-29"/><clipPath id="clippath-32"><polygon points="985.65 2799.63 653.32 2509.17 653.32 2799.63 985.65 2799.63" style="clip-rule:evenodd; fill:none;"/></clipPath><linearGradient id="linear-gradient-33" x1="821.61" y1="2651.63" x2="682.14" y2="2833.24" xlink:href="#linear-gradient-30"/><clipPath id="clippath-33"><polygon points="321 2799.63 653.32 3090.08 653.32 2799.63 321 2799.63" style="clip-rule:evenodd; fill:none;"/></clipPath><linearGradient id="linear-gradient-34" x1="485.02" y1="2947.65" x2="624.49" y2="2766.04" xlink:href="#linear-gradient-30"/><clipPath id="clippath-34"><polygon points="1851 4437.55 2141.46 4769.87 2431.91 4437.55 2141.46 4105.23 1851 4437.55" style="clip-rule:evenodd; fill:none;"/></clipPath><linearGradient id="linear-gradient-35" x1="2140.63" y1="4782.81" x2="2142.25" y2="4105.25" xlink:href="#linear-gradient-29"/><clipPath id="clippath-35"><polygon points="2141.46 4105.23 1851 4437.55 2141.46 4437.55 2141.46 4105.23" style="clip-rule:evenodd; fill:none;"/></clipPath><linearGradient id="linear-gradient-36" x1="1993.47" y1="4269.27" x2="2175.08" y2="4408.74" xlink:href="#linear-gradient-30"/><clipPath id="clippath-36"><polygon points="2141.46 4769.87 2431.91 4437.55 2141.46 4437.55 2141.46 4769.87" style="clip-rule:evenodd; fill:none;"/></clipPath><linearGradient id="linear-gradient-37" x1="2289.45" y1="4605.84" x2="2107.88" y2="4466.37" xlink:href="#linear-gradient-30"/><clipPath id="clippath-37"><polygon points="2845.95 2800.92 3028.32 2686.43 3210.69 2800.92 3028.32 2915.41 2845.95 2800.92" style="clip-rule:evenodd; fill:none;"/></clipPath><linearGradient id="linear-gradient-38" x1="3028.18" y1="2681.95" x2="3028.46" y2="2915.39" xlink:href="#linear-gradient-29"/><clipPath id="clippath-38"><polygon points="3028.32 2686.43 3210.69 2800.92 3028.32 2800.92 3028.32 2686.43" style="clip-rule:evenodd; fill:none;"/></clipPath><linearGradient id="linear-gradient-39" x1="3120.24" y1="2742.34" x2="3072.1" y2="2829.57" xlink:href="#linear-gradient-30"/><clipPath id="clippath-39"><polygon points="3028.32 2915.41 2845.95 2800.92 3028.32 2800.92 3028.32 2915.41" style="clip-rule:evenodd; fill:none;"/></clipPath><linearGradient id="linear-gradient-40" x1="2936.41" y1="2859.48" x2="2984.5" y2="2772.25" xlink:href="#linear-gradient-30"/><clipPath id="clippath-40"><polygon points="1072.22 2800.92 1254.59 2686.43 1436.96 2800.92 1254.59 2915.41 1072.22 2800.92" style="clip-rule:evenodd; fill:none;"/></clipPath><linearGradient id="linear-gradient-41" x1="1254.45" y1="2681.95" x2="1254.73" y2="2915.39" xlink:href="#linear-gradient-29"/><clipPath id="clippath-41"><polygon points="1254.59 2686.43 1436.96 2800.92 1254.59 2800.92 1254.59 2686.43" style="clip-rule:evenodd; fill:none;"/></clipPath><linearGradient id="linear-gradient-42" x1="1346.51" y1="2742.34" x2="1298.37" y2="2829.57" xlink:href="#linear-gradient-30"/><clipPath id="clippath-42"><polygon points="1254.59 2915.41 1072.22 2800.92 1254.59 2800.92 1254.59 2915.41" style="clip-rule:evenodd; fill:none;"/></clipPath><linearGradient id="linear-gradient-43" x1="1162.68" y1="2859.48" x2="1210.81" y2="2772.25" xlink:href="#linear-gradient-30"/><clipPath id="clippath-43"><polygon points="2141.46 4033.22 2026.96 3850.85 2141.46 3668.48 2255.95 3850.85 2141.46 4033.22" style="clip-rule:evenodd; fill:none;"/></clipPath><linearGradient id="linear-gradient-44" x1="2022.5" y1="3851.02" x2="2255.93" y2="3850.69" xlink:href="#linear-gradient-29"/><clipPath id="clippath-44"><polygon points="2026.97 3850.85 2141.46 3668.48 2141.46 3850.85 2026.97 3850.85" style="clip-rule:evenodd; fill:none;"/></clipPath><linearGradient id="linear-gradient-45" x1="2082.89" y1="3758.94" x2="2170.12" y2="3807.08" xlink:href="#linear-gradient-30"/><clipPath id="clippath-45"><polygon points="2255.95 3850.85 2141.46 4033.22 2141.46 3850.85 2255.95 3850.85" style="clip-rule:evenodd; fill:none;"/></clipPath><linearGradient id="linear-gradient-46" x1="2200.01" y1="3942.76" x2="2112.79" y2="3894.63" xlink:href="#linear-gradient-30"/><clipPath id="clippath-46"><polygon points="2141.46 502.84 2026.96 320.47 2141.46 138.1 2255.95 320.47 2141.46 502.84" style="clip-rule:evenodd; fill:none;"/></clipPath><linearGradient id="linear-gradient-47" x1="2022.5" y1="320.61" x2="2255.93" y2="320.34" xlink:href="#linear-gradient-29"/><clipPath id="clippath-47"><polygon points="2026.97 320.47 2141.46 138.1 2141.46 320.47 2026.97 320.47" style="clip-rule:evenodd; fill:none;"/></clipPath><linearGradient id="linear-gradient-48" x1="2082.89" y1="228.56" x2="2170.12" y2="276.7" xlink:href="#linear-gradient-30"/><clipPath id="clippath-48"><polygon points="2255.95 320.47 2141.46 502.84 2141.46 320.47 2255.95 320.47" style="clip-rule:evenodd; fill:none;"/></clipPath><linearGradient id="linear-gradient-49" x1="2200.01" y1="412.38" x2="2112.79" y2="364.25" xlink:href="#linear-gradient-30"/><clipPath id="clippath-49"><path d="M1854.14,2413.05c-40.62,81.21-59.12,90.99-150.09,87.94-14.66,79.41,64.43,109.85,140.68,108.1,56.72-1.31,83.88-14.06,132-42.53,59.65-35.31,144.13-38.26,164.37,78.64-12.12-9.45-35.1-15.08-49.61-15.3,130.58,121.86-70.03,304.86-162.93,145.59-20.18,190.13,395.83,192.36,463.28-68.94,25.31-101.77-4.53-209.39-78.68-283.55-74.12-74.17-181.74-104.09-283.53-78.79-10.37-61.08-52.93-111.82-111.28-132.71,20.56,48.41,19.53,103.24-2.79,150.86-27.67,5.55-50.71,24.58-61.43,50.69" style="clip-rule:evenodd; fill:none;"/></clipPath><linearGradient id="linear-gradient-50" x1="2326.77" y1="2773.82" x2="1628.51" y2="2303.71" xlink:href="#linear-gradient-6"/><clipPath id="clippath-50"><path d="M1704.05,2500.99c-14.66,79.41,64.43,109.85,140.68,108.1,56.72-1.3,83.88-14.06,132-42.53,59.65-35.31,144.13-38.26,164.37,78.64-12.11-9.45-35.1-15.08-49.6-15.3,130.58,121.86-70.04,304.86-162.93,145.58,26.1,121.59,196.82,112.4,264.12,28.41,34.79-43.42,45.36-101.45,28.11-154.35,0,0,12.51,4.71,37.52,14.12,7.01-74.89-29.1-147.27-93.14-186.71-64.05-39.44-144.93-39.11-208.65.85-29.89,37.33-73.69,60.89-121.31,65.26-47.62,4.38-94.97-10.81-131.17-42.07" style="clip-rule:evenodd; fill:none;"/></clipPath><linearGradient id="linear-gradient-51" x1="1968.54" y1="2875.83" x2="1988.99" y2="2435.72" xlink:href="#linear-gradient-4"/><clipPath id="clippath-51"><path d="M1924.37,3193.42c-189.32-92.13-201.73-381.79-25.91-412.21-21.12,70.67,44.39,140.34,141.62,140.94-21.39,18.19-49.31,26.87-77.26,24,182.05,34.61,245.27-52.22,385-46.95-17.84,5.55-33.84,15.81-46.37,29.7,113-15.24,223.79,40.32,279.19,140-19.61-9-40.57-14.69-62.04-16.82,53.96,67.27,63.53,159.84,24.48,236.71-58.66-73.58-153.43-108.36-245.78-90.23,7.64,13.88,17.27,26.56,28.57,37.69-144.04,39.95-298.47,4.76-410.97-93.63-4.35,17.49-.88,36.04,9.49,50.8" style="clip-rule:evenodd; fill:none;"/></clipPath><linearGradient id="linear-gradient-52" x1="2388.81" y1="3288.4" x2="1843.46" y2="2703.91" xlink:href="#linear-gradient-6"/><clipPath id="clippath-52"><path d="M1924.37,3193.42c-189.32-92.13-201.73-381.8-25.91-412.21-48.61,43.3-64.67,112.51-40.11,172.79,24.57,60.28,84.44,98.55,149.47,95.53,160.5,4.45,326.82-67.73,451.33,44.94,54.78,49.58,85.39,120.46,83.92,194.32-58.66-73.58-153.43-108.36-245.79-90.23,7.64,13.88,17.28,26.56,28.57,37.69-144.04,39.95-298.47,4.76-410.97-93.63-4.35,17.49-.88,36.04,9.49,50.8" style="clip-rule:evenodd; fill:none;"/></clipPath><linearGradient id="linear-gradient-53" x1="2122.84" y1="3298.78" x2="2144.56" y2="2765.83" xlink:href="#linear-gradient-4"/></defs><g id="Layer_1"><g style="clip-path:url(#clippath);"><rect x="563.39" width="3156.13" height="3156.13" style="fill:url(#linear-gradient);"/></g><g style="clip-path:url(#clippath-1);"><rect x="665.98" y="102.6" width="2950.94" height="2950.93" style="fill:url(#linear-gradient-2);"/></g><g style="clip-path:url(#clippath-2);"><rect x="384.29" y="1198.46" width="3514.33" height="3072.93" style="fill:url(#linear-gradient-3);"/></g><g style="clip-path:url(#clippath-3);"><rect x="3496.67" y="1208.82" width="401.95" height="1437.78" style="fill:url(#linear-gradient-4);"/></g><g style="clip-path:url(#clippath-4);"><rect x="2052.31" y="863.78" width="1858.42" height="984.16" style="fill:url(#linear-gradient-5);"/></g><g style="clip-path:url(#clippath-5);"><rect x="2373.12" y="1041.44" width="1537.61" height="786.82" style="fill:url(#linear-gradient-6);"/></g><g style="clip-path:url(#clippath-6);"><rect x="372.19" y="1208.82" width="401.96" height="1437.78" style="fill:url(#linear-gradient-7);"/></g><g style="clip-path:url(#clippath-7);"><rect y="2277.85" width="2141.46" height="2547.31" style="fill:url(#linear-gradient-8);"/></g><g style="clip-path:url(#clippath-8);"><rect y="2286.88" width="2156.63" height="2501.95" style="fill:url(#linear-gradient-9);"/></g><g style="clip-path:url(#clippath-9);"><rect x="2141.46" y="2277.85" width="2141.46" height="2547.31" style="fill:url(#linear-gradient-10);"/></g><g style="clip-path:url(#clippath-10);"><rect x="2126.28" y="2286.88" width="2156.63" height="2501.95" style="fill:url(#linear-gradient-11);"/></g><g style="clip-path:url(#clippath-11);"><rect x="905.55" y="3668.48" width="2471.82" height="1331.52" style="fill:url(#linear-gradient-12);"/></g><g style="clip-path:url(#clippath-12);"><rect x="1220.96" y="3668.48" width="1841.01" height="1101.39" style="fill:url(#linear-gradient-13);"/></g><g style="clip-path:url(#clippath-13);"><rect x="2389.82" y="3189.29" width="1680.05" height="1013.84" style="fill:url(#linear-gradient-14);"/></g><g style="clip-path:url(#clippath-14);"><rect x="2653.16" y="3201.41" width="1416.71" height="702.11" style="fill:url(#linear-gradient-15);"/></g><g style="clip-path:url(#clippath-15);"><rect x="213.04" y="3189.29" width="1680.05" height="1013.84" style="fill:url(#linear-gradient-16);"/></g><g style="clip-path:url(#clippath-16);"><rect x="213.04" y="3201.4" width="1416.71" height="702.11" style="fill:url(#linear-gradient-17);"/></g><g style="clip-path:url(#clippath-17);"><rect x="2113.32" y="274.68" width="1205.17" height="1424.39" style="fill:url(#linear-gradient-18);"/></g><g style="clip-path:url(#clippath-18);"><rect x="372.19" y="863.78" width="1858.42" height="984.16" style="fill:url(#linear-gradient-19);"/></g><g style="clip-path:url(#clippath-19);"><rect x="372.19" y="1041.44" width="1537.61" height="786.82" style="fill:url(#linear-gradient-20);"/></g><g style="clip-path:url(#clippath-20);"><rect x="964.44" y="274.68" width="1205.17" height="1424.39" style="fill:url(#linear-gradient-21);"/></g><g style="clip-path:url(#clippath-21);"><rect x="1221.77" y="354.79" width="947.84" height="1249" style="fill:url(#linear-gradient-22);"/></g><g style="clip-path:url(#clippath-22);"><rect x="547.9" y="1207.36" width="3187.11" height="3187.11" style="fill:url(#linear-gradient-23);"/></g><g style="clip-path:url(#clippath-23);"><rect x="756.82" y="1161.7" width="2769.27" height="3278.44" style="fill:url(#linear-gradient-24);"/></g><g style="clip-path:url(#clippath-24);"><rect x="960.19" y="1402.46" width="2362.54" height="2796.92" style="fill:url(#linear-gradient-25);"/></g><g style="clip-path:url(#clippath-25);"><rect x="1168.64" y="1649.23" width="1945.62" height="2303.36" style="fill:url(#linear-gradient-26);"/></g><g style="clip-path:url(#clippath-26);"><rect x="1254.59" y="1750.98" width="1773.74" height="2099.87" style="fill:url(#linear-gradient-27);"/></g><g style="clip-path:url(#clippath-27);"><rect x="2113.32" y="354.79" width="947.85" height="1249" style="fill:url(#linear-gradient-28);"/></g><g style="clip-path:url(#clippath-28);"><rect x="3297.27" y="2509.17" width="664.64" height="580.9" style="fill:url(#linear-gradient-29);"/></g><g style="clip-path:url(#clippath-29);"><rect x="3629.59" y="2509.17" width="332.32" height="290.45" style="fill:url(#linear-gradient-30);"/></g><g style="clip-path:url(#clippath-30);"><rect x="3297.27" y="2799.63" width="332.32" height="290.45" style="fill:url(#linear-gradient-31);"/></g><g style="clip-path:url(#clippath-31);"><rect x="321.01" y="2509.17" width="664.64" height="580.9" style="fill:url(#linear-gradient-32);"/></g><g style="clip-path:url(#clippath-32);"><rect x="653.32" y="2509.17" width="332.32" height="290.45" style="fill:url(#linear-gradient-33);"/></g><g style="clip-path:url(#clippath-33);"><rect x="321" y="2799.63" width="332.32" height="290.45" style="fill:url(#linear-gradient-34);"/></g><g style="clip-path:url(#clippath-34);"><rect x="1851" y="4105.23" width="580.9" height="664.64" style="fill:url(#linear-gradient-35);"/></g><g style="clip-path:url(#clippath-35);"><rect x="1851" y="4105.23" width="290.45" height="332.32" style="fill:url(#linear-gradient-36);"/></g><g style="clip-path:url(#clippath-36);"><rect x="2141.46" y="4437.55" width="290.45" height="332.32" style="fill:url(#linear-gradient-37);"/></g><g style="clip-path:url(#clippath-37);"><rect x="2845.95" y="2686.43" width="364.74" height="228.98" style="fill:url(#linear-gradient-38);"/></g><g style="clip-path:url(#clippath-38);"><rect x="3028.32" y="2686.43" width="182.37" height="114.49" style="fill:url(#linear-gradient-39);"/></g><g style="clip-path:url(#clippath-39);"><rect x="2845.95" y="2800.92" width="182.37" height="114.49" style="fill:url(#linear-gradient-40);"/></g><g style="clip-path:url(#clippath-40);"><rect x="1072.22" y="2686.43" width="364.74" height="228.98" style="fill:url(#linear-gradient-41);"/></g><g style="clip-path:url(#clippath-41);"><rect x="1254.59" y="2686.43" width="182.37" height="114.49" style="fill:url(#linear-gradient-42);"/></g><g style="clip-path:url(#clippath-42);"><rect x="1072.22" y="2800.92" width="182.37" height="114.49" style="fill:url(#linear-gradient-43);"/></g><g style="clip-path:url(#clippath-43);"><rect x="2026.96" y="3668.48" width="228.98" height="364.74" style="fill:url(#linear-gradient-44);"/></g><g style="clip-path:url(#clippath-44);"><rect x="2026.97" y="3668.48" width="114.49" height="182.37" style="fill:url(#linear-gradient-45);"/></g><g style="clip-path:url(#clippath-45);"><rect x="2141.46" y="3850.85" width="114.49" height="182.37" style="fill:url(#linear-gradient-46);"/></g><g style="clip-path:url(#clippath-46);"><rect x="2026.96" y="138.1" width="228.98" height="364.74" style="fill:url(#linear-gradient-47);"/></g><g style="clip-path:url(#clippath-47);"><rect x="2026.97" y="138.1" width="114.49" height="182.37" style="fill:url(#linear-gradient-48);"/></g><g style="clip-path:url(#clippath-48);"><rect x="2141.46" y="320.47" width="114.49" height="182.37" style="fill:url(#linear-gradient-49);"/></g><g style="clip-path:url(#clippath-49);"><rect x="1689.38" y="2211.5" width="727.77" height="756.35" style="fill:url(#linear-gradient-50);"/></g><g style="clip-path:url(#clippath-50);"><rect x="1689.38" y="2437.51" width="575.94" height="497.25" style="fill:url(#linear-gradient-51);"/></g><g style="clip-path:url(#clippath-51);"><rect x="1722.64" y="2781.21" width="859.48" height="507.59" style="fill:url(#linear-gradient-52);"/></g><g style="clip-path:url(#clippath-52);"><rect x="1722.64" y="2781.21" width="821.9" height="507.59" style="fill:url(#linear-gradient-53);"/></g></g></svg>