<?xml version="1.0" encoding="UTF-8"?><svg id="Layer_3" xmlns="http://www.w3.org/2000/svg" xmlns:xlink="http://www.w3.org/1999/xlink" viewBox="0 0 500.06 431.21"><defs><clipPath id="clippath"><polygon points="500.06 181.18 431.21 181.18 364.87 114.85 456.14 94.27 434.64 115.77 500.06 181.18" style="clip-rule:evenodd; fill:none;"/></clipPath><linearGradient id="linear-gradient" x1="373.66" y1="85.8" x2="481.07" y2="180.64" gradientUnits="userSpaceOnUse"><stop offset="0" stop-color="#2b3c36"/><stop offset=".49" stop-color="#b8bdb6"/><stop offset="1" stop-color="#2b3c36"/></linearGradient><clipPath id="clippath-1"><polygon points="500.06 181.18 465.07 181.18 406.87 119.52 456.14 94.27 434.64 115.77 500.06 181.18" style="clip-rule:evenodd; fill:none;"/></clipPath><linearGradient id="linear-gradient-2" x1="421.73" y1="98.41" x2="503.82" y2="200.12" gradientUnits="userSpaceOnUse"><stop offset="0" stop-color="#2b3c36"/><stop offset=".42" stop-color="#eff1ee"/><stop offset="1" stop-color="#2b3c36"/></linearGradient><clipPath id="clippath-2"><polygon points="500.06 181.18 250.03 431.21 0 181.18 500.06 181.18" style="clip-rule:evenodd; fill:none;"/></clipPath><linearGradient id="linear-gradient-3" x1="495.26" y1="306.19" x2="-.65" y2="306.2" gradientUnits="userSpaceOnUse"><stop offset="0" stop-color="#2b3c36"/><stop offset=".48" stop-color="#eff1ee"/><stop offset="1" stop-color="#2b3c36"/></linearGradient><clipPath id="clippath-3"><polygon points="34.98 181.18 465.07 181.18 250.03 396.23 34.98 181.18" style="clip-rule:evenodd; fill:none;"/></clipPath><linearGradient id="linear-gradient-4" x1="460.95" y1="288.7" x2="34.42" y2="288.71" xlink:href="#linear-gradient"/><clipPath id="clippath-4"><rect x="121.91" y="53.07" width="256.23" height="256.23" transform="translate(-54.88 229.86) rotate(-45)" style="fill:none;"/></clipPath><linearGradient id="linear-gradient-5" x1="250.03" y1="28.31" x2="250.02" y2="345.89" xlink:href="#linear-gradient-3"/><clipPath id="clippath-5"><rect x="150.22" y="81.38" width="199.61" height="199.61" transform="translate(-54.88 229.86) rotate(-45)" style="fill:none;"/></clipPath><linearGradient id="linear-gradient-6" x1="108.88" y1="181.18" x2="391.18" y2="181.18" xlink:href="#linear-gradient-3"/><clipPath id="clippath-6"><polygon points="166.33 125.01 250.03 28.31 333.72 125.01 250.03 221.71 166.33 125.01" style="clip-rule:evenodd; fill:none;"/></clipPath><linearGradient id="linear-gradient-7" x1="250.02" y1="46.12" x2="250.03" y2="165.92" gradientUnits="userSpaceOnUse"><stop offset="0" stop-color="#2b3c36"/><stop offset=".43" stop-color="#eff1ee"/><stop offset="1" stop-color="#2b3c36"/></linearGradient><clipPath id="clippath-7"><polygon points="175.57 125.01 250.03 211.04 324.48 125.01 250.03 38.98 175.57 125.01" style="clip-rule:evenodd; fill:none;"/></clipPath><linearGradient id="linear-gradient-8" x1="177.1" y1="114.44" x2="322.95" y2="135.58" xlink:href="#linear-gradient-3"/><clipPath id="clippath-8"><polygon points="0 181.18 68.85 181.18 135.18 114.85 43.91 94.27 65.41 115.77 0 181.18" style="clip-rule:evenodd; fill:none;"/></clipPath><linearGradient id="linear-gradient-9" x1="126.4" y1="85.8" x2="18.99" y2="180.64" xlink:href="#linear-gradient"/><clipPath id="clippath-9"><polygon points="0 181.18 34.98 181.18 93.19 119.52 43.91 94.27 65.41 115.77 0 181.18" style="clip-rule:evenodd; fill:none;"/></clipPath><linearGradient id="linear-gradient-10" x1="78.33" y1="98.41" x2="-3.77" y2="200.12" xlink:href="#linear-gradient-2"/><clipPath id="clippath-10"><polygon points="139.42 181.18 250.03 50.24 360.63 181.18 250.03 312.12 139.42 181.18" style="clip-rule:evenodd; fill:none;"/></clipPath><linearGradient id="linear-gradient-11" x1="250.3" y1="308.32" x2="249.74" y2="50.24" gradientUnits="userSpaceOnUse"><stop offset="0" stop-color="#010600"/><stop offset="1" stop-color="#1d282c"/></linearGradient><clipPath id="clippath-11"><path d="M250.03,87.15c51.93,0,94.03,42.1,94.03,94.03s-42.1,94.03-94.03,94.03-94.03-42.1-94.03-94.03,42.1-94.03,94.03-94.03" style="clip-rule:evenodd; fill:none;"/></clipPath><linearGradient id="linear-gradient-12" x1="155.99" y1="181.18" x2="344.06" y2="181.18" gradientUnits="userSpaceOnUse"><stop offset="0" stop-color="#14263c"/><stop offset=".5" stop-color="#dff1f5"/><stop offset="1" stop-color="#14263c"/></linearGradient><clipPath id="clippath-12"><path d="M250.03,92.93c48.74,0,88.25,39.51,88.25,88.25s-39.51,88.25-88.25,88.25-88.25-39.51-88.25-88.25,39.51-88.25,88.25-88.25" style="clip-rule:evenodd; fill:none;"/></clipPath><linearGradient id="linear-gradient-13" x1="205.89" y1="253.31" x2="294.16" y2="109.06" xlink:href="#linear-gradient-11"/><clipPath id="clippath-13"><polygon points="219.1 308.1 250.03 270.32 280.95 308.1 250.03 345.89 219.1 308.1" style="clip-rule:evenodd; fill:none;"/></clipPath><linearGradient id="linear-gradient-14" x1="250.03" y1="276.22" x2="250.03" y2="342.45" xlink:href="#linear-gradient-3"/><clipPath id="clippath-14"><polygon points="250.03 345.88 280.96 308.1 250.03 308.1 250.03 345.88" style="clip-rule:evenodd; fill:none;"/></clipPath><linearGradient id="linear-gradient-15" x1="278.3" y1="330.69" x2="244.87" y2="321.03" xlink:href="#linear-gradient-3"/><clipPath id="clippath-15"><polygon points="250.03 270.32 219.1 308.1 250.03 308.1 250.03 270.32" style="clip-rule:evenodd; fill:none;"/></clipPath><linearGradient id="linear-gradient-16" x1="221.08" y1="285.89" x2="259.34" y2="295.31" xlink:href="#linear-gradient-3"/><clipPath id="clippath-16"><polygon points="260.63 134.37 260.63 144.89 260.63 217.47 260.63 227.99 264.74 238.51 260.63 238.51 239.42 238.51 235.31 238.51 239.42 227.99 239.42 217.47 239.42 144.89 239.42 134.37 235.31 123.85 239.42 123.85 260.63 123.85 264.74 123.85 260.63 134.37" style="clip-rule:evenodd; fill:none;"/></clipPath><linearGradient id="linear-gradient-17" x1="250.02" y1="237.32" x2="250.03" y2="123.86" gradientUnits="userSpaceOnUse"><stop offset="0" stop-color="#476e8f"/><stop offset=".54" stop-color="#9cb2bf"/><stop offset="1" stop-color="#e4e8e7"/></linearGradient><clipPath id="clippath-17"><polygon points="261.73 125.91 238.33 125.91 241.48 133.98 241.48 228.38 238.33 236.45 261.73 236.45 258.57 228.38 258.57 133.98 261.73 125.91" style="clip-rule:evenodd; fill:none;"/></clipPath><linearGradient id="linear-gradient-18" x1="250.03" y1="235.31" x2="250.03" y2="125.91" gradientUnits="userSpaceOnUse"><stop offset="0" stop-color="#9cb2bf"/><stop offset="1" stop-color="#e4e8e7"/></linearGradient></defs><g id="Layer_1"><g style="clip-path:url(#clippath);"><rect x="364.87" y="94.27" width="135.18" height="86.91" style="fill:url(#linear-gradient);"/></g><g style="clip-path:url(#clippath-1);"><rect x="406.87" y="94.27" width="93.19" height="86.91" style="fill:url(#linear-gradient-2);"/></g><g style="clip-path:url(#clippath-2);"><rect y="181.18" width="500.06" height="250.03" style="fill:url(#linear-gradient-3);"/></g><g style="clip-path:url(#clippath-3);"><rect x="34.98" y="181.18" width="430.09" height="215.04" style="fill:url(#linear-gradient-4);"/></g><g style="clip-path:url(#clippath-4);"><rect x="68.85" width="362.36" height="362.36" style="fill:url(#linear-gradient-5);"/></g><g style="clip-path:url(#clippath-5);"><rect x="108.88" y="40.04" width="282.29" height="282.29" style="fill:url(#linear-gradient-6);"/></g><g style="clip-path:url(#clippath-6);"><rect x="166.33" y="28.31" width="167.39" height="193.4" style="fill:url(#linear-gradient-7);"/></g><g style="clip-path:url(#clippath-7);"><rect x="175.57" y="38.98" width="148.91" height="172.05" style="fill:url(#linear-gradient-8);"/></g><g style="clip-path:url(#clippath-8);"><rect y="94.27" width="135.18" height="86.91" style="fill:url(#linear-gradient-9);"/></g><g style="clip-path:url(#clippath-9);"><rect y="94.27" width="93.19" height="86.91" style="fill:url(#linear-gradient-10);"/></g><g style="clip-path:url(#clippath-10);"><rect x="139.42" y="50.24" width="221.21" height="261.88" style="fill:url(#linear-gradient-11);"/></g><g style="clip-path:url(#clippath-11);"><rect x="155.99" y="87.15" width="188.07" height="188.07" style="fill:url(#linear-gradient-12);"/></g><g style="clip-path:url(#clippath-12);"><rect x="161.78" y="92.93" width="176.51" height="176.5" style="fill:url(#linear-gradient-13);"/></g><g style="clip-path:url(#clippath-13);"><rect x="219.1" y="270.32" width="61.85" height="75.57" style="fill:url(#linear-gradient-14);"/></g><g style="clip-path:url(#clippath-14);"><rect x="250.03" y="308.1" width="30.93" height="37.78" style="fill:url(#linear-gradient-15);"/></g><g style="clip-path:url(#clippath-15);"><rect x="219.1" y="270.32" width="30.93" height="37.78" style="fill:url(#linear-gradient-16);"/></g><g style="clip-path:url(#clippath-16);"><rect x="235.31" y="123.85" width="29.43" height="114.66" style="fill:url(#linear-gradient-17);"/></g><g style="clip-path:url(#clippath-17);"><rect x="238.33" y="125.91" width="23.41" height="110.54" style="fill:url(#linear-gradient-18);"/></g></g></svg>