<?xml version="1.0" encoding="UTF-8"?><svg id="Layer_2" xmlns="http://www.w3.org/2000/svg" xmlns:xlink="http://www.w3.org/1999/xlink" viewBox="0 0 500.03 500.03"><defs><clipPath id="clippath"><rect x="73.23" y="73.23" width="353.57" height="353.57" transform="translate(-103.56 250.02) rotate(-45)" style="fill:none;"/></clipPath><linearGradient id="linear-gradient" x1="250.02" y1="0" x2="250.02" y2="500.03" gradientUnits="userSpaceOnUse"><stop offset="0" stop-color="#4a1408"/><stop offset=".55" stop-color="#ffdbb9"/><stop offset="1" stop-color="#4a1408"/></linearGradient><clipPath id="clippath-1"><rect x="100.58" y="100.58" width="298.88" height="298.88" transform="translate(-103.56 250.02) rotate(-45)" style="fill:none;"/></clipPath><linearGradient id="linear-gradient-2" x1="38.68" y1="250.02" x2="461.35" y2="250.02" xlink:href="#linear-gradient"/><clipPath id="clippath-2"><rect x="132.44" y="132.44" width="235.14" height="235.14" transform="translate(-103.56 250.01) rotate(-45)" style="fill:none;"/></clipPath><linearGradient id="linear-gradient-3" x1="250.02" y1="90.36" x2="250.02" y2="416.29" gradientUnits="userSpaceOnUse"><stop offset="0" stop-color="#542312"/><stop offset="1" stop-color="#170708"/></linearGradient><clipPath id="clippath-3"><path d="M250.02,120.26c71.66,0,129.76,58.1,129.76,129.76s-58.1,129.76-129.76,129.76-129.76-58.1-129.76-129.76,58.1-129.76,129.76-129.76" style="clip-rule:evenodd; fill:none;"/></clipPath><linearGradient id="linear-gradient-4" x1="379.77" y1="120.25" x2="120.26" y2="379.78" xlink:href="#linear-gradient"/><clipPath id="clippath-4"><path d="M250.02,128.23c67.26,0,121.78,54.52,121.78,121.78s-54.52,121.78-121.78,121.78-121.78-54.52-121.78-121.78,54.52-121.78,121.78-121.78" style="clip-rule:evenodd; fill:none;"/></clipPath><linearGradient id="linear-gradient-5" x1="366.95" y1="133.08" x2="128.23" y2="371.8" xlink:href="#linear-gradient-3"/><clipPath id="clippath-5"><polygon points="264.65 185.42 264.65 199.94 264.65 300.09 264.65 314.61 270.32 329.12 264.65 329.12 235.38 329.12 229.71 329.12 235.38 314.61 235.38 300.09 235.38 199.94 235.38 185.42 229.71 170.91 235.38 170.91 264.65 170.91 270.32 170.91 264.65 185.42" style="clip-rule:evenodd; fill:none;"/></clipPath><linearGradient id="linear-gradient-6" x1="250.01" y1="327.49" x2="250.02" y2="170.91" gradientUnits="userSpaceOnUse"><stop offset="0" stop-color="#85393b"/><stop offset=".54" stop-color="#d59f85"/><stop offset="1" stop-color="#faead1"/></linearGradient><clipPath id="clippath-6"><polygon points="266.16 173.74 233.87 173.74 238.22 184.89 238.22 315.14 233.87 326.29 266.16 326.29 261.81 315.14 261.81 184.89 266.16 173.74" style="clip-rule:evenodd; fill:none;"/></clipPath><linearGradient id="linear-gradient-7" x1="250.02" y1="418.26" x2="250.02" y2="173.74" xlink:href="#linear-gradient-6"/></defs><g id="Layer_1"><g style="clip-path:url(#clippath);"><rect width="500.03" height="500.03" style="fill:url(#linear-gradient);"/></g><g style="clip-path:url(#clippath-1);"><rect x="38.68" y="38.68" width="422.68" height="422.68" style="fill:url(#linear-gradient-2);"/></g><g style="clip-path:url(#clippath-2);"><rect x="83.75" y="83.75" width="332.54" height="332.54" style="fill:url(#linear-gradient-3);"/></g><g style="clip-path:url(#clippath-3);"><rect x="120.26" y="120.26" width="259.52" height="259.52" style="fill:url(#linear-gradient-4);"/></g><g style="clip-path:url(#clippath-4);"><rect x="128.23" y="128.23" width="243.56" height="243.56" style="fill:url(#linear-gradient-5);"/></g><g style="clip-path:url(#clippath-5);"><rect x="229.71" y="170.91" width="40.61" height="158.22" style="fill:url(#linear-gradient-6);"/></g><g style="clip-path:url(#clippath-6);"><rect x="233.87" y="173.74" width="32.3" height="152.54" style="fill:url(#linear-gradient-7);"/></g></g></svg>