<?xml version="1.0" encoding="UTF-8"?><svg id="Layer_2" xmlns="http://www.w3.org/2000/svg" xmlns:xlink="http://www.w3.org/1999/xlink" viewBox="0 0 500.03 500.03"><defs><clipPath id="clippath"><rect x="73.23" y="73.23" width="353.58" height="353.58" transform="translate(-103.56 250.02) rotate(-45)" style="fill:none;"/></clipPath><linearGradient id="linear-gradient" x1="250.02" y1="0" x2="250.02" y2="500.03" gradientUnits="userSpaceOnUse"><stop offset="0" stop-color="#4a1408"/><stop offset=".55" stop-color="#ffdbb9"/><stop offset="1" stop-color="#4a1408"/></linearGradient><clipPath id="clippath-1"><rect x="100.58" y="100.58" width="298.88" height="298.88" transform="translate(-103.56 250.02) rotate(-45)" style="fill:none;"/></clipPath><linearGradient id="linear-gradient-2" x1="38.68" y1="250.02" x2="461.35" y2="250.02" xlink:href="#linear-gradient"/><clipPath id="clippath-2"><rect x="132.45" y="132.44" width="235.14" height="235.14" transform="translate(-103.56 250.02) rotate(-45)" style="fill:none;"/></clipPath><linearGradient id="linear-gradient-3" x1="250.02" y1="90.36" x2="250.02" y2="416.29" gradientUnits="userSpaceOnUse"><stop offset="0" stop-color="#542312"/><stop offset="1" stop-color="#170708"/></linearGradient><clipPath id="clippath-3"><path d="M250.02,120.26c71.66,0,129.76,58.1,129.76,129.76s-58.1,129.76-129.76,129.76-129.76-58.1-129.76-129.76,58.1-129.76,129.76-129.76" style="clip-rule:evenodd; fill:none;"/></clipPath><linearGradient id="linear-gradient-4" x1="379.77" y1="120.25" x2="120.26" y2="379.78" xlink:href="#linear-gradient"/><clipPath id="clippath-4"><path d="M250.02,128.23c67.26,0,121.78,54.52,121.78,121.78s-54.52,121.78-121.78,121.78-121.78-54.52-121.78-121.78,54.52-121.78,121.78-121.78" style="clip-rule:evenodd; fill:none;"/></clipPath><linearGradient id="linear-gradient-5" x1="366.95" y1="133.08" x2="128.23" y2="371.8" xlink:href="#linear-gradient-3"/><clipPath id="clippath-5"><polygon points="289.51 185.42 289.51 199.94 289.51 300.09 289.51 314.61 295.19 329.12 289.51 329.12 260.25 329.12 254.58 329.12 260.25 314.61 260.25 300.09 260.25 199.94 260.25 185.42 254.58 170.91 260.25 170.91 289.51 170.91 295.19 170.91 289.51 185.42" style="clip-rule:evenodd; fill:none;"/></clipPath><linearGradient id="linear-gradient-6" x1="274.88" y1="327.49" x2="274.88" y2="170.91" gradientUnits="userSpaceOnUse"><stop offset="0" stop-color="#85393b"/><stop offset=".54" stop-color="#d59f85"/><stop offset="1" stop-color="#faead1"/></linearGradient><clipPath id="clippath-6"><polygon points="239.78 185.42 239.78 199.94 239.78 300.09 239.78 314.61 245.46 329.12 239.78 329.12 210.52 329.12 204.85 329.12 210.52 314.61 210.52 300.09 210.52 199.94 210.52 185.42 204.85 170.91 210.52 170.91 239.78 170.91 245.46 170.91 239.78 185.42" style="clip-rule:evenodd; fill:none;"/></clipPath><linearGradient id="linear-gradient-7" x1="225.15" x2="225.15" xlink:href="#linear-gradient-6"/><clipPath id="clippath-7"><polygon points="241.3 173.74 209 173.74 213.36 184.89 213.36 315.14 209 326.29 241.3 326.29 236.94 315.14 236.94 184.89 241.3 173.74" style="clip-rule:evenodd; fill:none;"/></clipPath><linearGradient id="linear-gradient-8" x1="225.15" y1="418.26" x2="225.15" y2="173.74" xlink:href="#linear-gradient-6"/><clipPath id="clippath-8"><polygon points="291.03 173.74 258.73 173.74 263.09 184.89 263.09 315.14 258.73 326.29 291.03 326.29 286.68 315.14 286.68 184.89 291.03 173.74" style="clip-rule:evenodd; fill:none;"/></clipPath><linearGradient id="linear-gradient-9" x1="274.88" y1="418.26" x2="274.88" y2="173.74" xlink:href="#linear-gradient-6"/></defs><g id="Layer_1"><g style="clip-path:url(#clippath);"><rect width="500.03" height="500.03" style="fill:url(#linear-gradient);"/></g><g style="clip-path:url(#clippath-1);"><rect x="38.68" y="38.68" width="422.68" height="422.68" style="fill:url(#linear-gradient-2);"/></g><g style="clip-path:url(#clippath-2);"><rect x="83.75" y="83.75" width="332.54" height="332.54" style="fill:url(#linear-gradient-3);"/></g><g style="clip-path:url(#clippath-3);"><rect x="120.26" y="120.26" width="259.52" height="259.52" style="fill:url(#linear-gradient-4);"/></g><g style="clip-path:url(#clippath-4);"><rect x="128.23" y="128.23" width="243.56" height="243.56" style="fill:url(#linear-gradient-5);"/></g><g style="clip-path:url(#clippath-5);"><rect x="254.58" y="170.91" width="40.61" height="158.22" style="fill:url(#linear-gradient-6);"/></g><g style="clip-path:url(#clippath-6);"><rect x="204.85" y="170.91" width="40.61" height="158.22" style="fill:url(#linear-gradient-7);"/></g><g style="clip-path:url(#clippath-7);"><rect x="209" y="173.74" width="32.3" height="152.54" style="fill:url(#linear-gradient-8);"/></g><g style="clip-path:url(#clippath-8);"><rect x="258.73" y="173.74" width="32.3" height="152.54" style="fill:url(#linear-gradient-9);"/></g></g></svg>