<?xml version="1.0" encoding="UTF-8"?><svg id="Layer_3" xmlns="http://www.w3.org/2000/svg" xmlns:xlink="http://www.w3.org/1999/xlink" viewBox="0 0 500.03 500.03"><defs><clipPath id="clippath"><rect x="73.23" y="73.23" width="353.58" height="353.58" transform="translate(-103.56 250.02) rotate(-45)" style="fill:none;"/></clipPath><linearGradient id="linear-gradient" x1="250.02" y1="0" x2="250.02" y2="500.03" gradientUnits="userSpaceOnUse"><stop offset="0" stop-color="#4a1408"/><stop offset=".55" stop-color="#ffdbb9"/><stop offset="1" stop-color="#4a1408"/></linearGradient><clipPath id="clippath-1"><rect x="100.58" y="100.58" width="298.88" height="298.88" transform="translate(-103.56 250.02) rotate(-45)" style="fill:none;"/></clipPath><linearGradient id="linear-gradient-2" x1="38.68" y1="250.02" x2="461.35" y2="250.02" xlink:href="#linear-gradient"/><clipPath id="clippath-2"><rect x="132.45" y="132.44" width="235.14" height="235.14" transform="translate(-103.56 250.02) rotate(-45)" style="fill:none;"/></clipPath><linearGradient id="linear-gradient-3" x1="250.01" y1="90.36" x2="250.02" y2="416.29" gradientUnits="userSpaceOnUse"><stop offset="0" stop-color="#542312"/><stop offset="1" stop-color="#170708"/></linearGradient><clipPath id="clippath-3"><path d="M250.02,120.26c71.66,0,129.76,58.1,129.76,129.76s-58.1,129.76-129.76,129.76-129.76-58.1-129.76-129.76,58.1-129.76,129.76-129.76" style="clip-rule:evenodd; fill:none;"/></clipPath><linearGradient id="linear-gradient-4" x1="379.78" y1="120.26" x2="120.26" y2="379.78" xlink:href="#linear-gradient"/><clipPath id="clippath-4"><path d="M250.02,128.23c67.26,0,121.78,54.52,121.78,121.78s-54.52,121.78-121.78,121.78-121.78-54.52-121.78-121.78,54.52-121.78,121.78-121.78" style="clip-rule:evenodd; fill:none;"/></clipPath><linearGradient id="linear-gradient-5" x1="366.95" y1="133.08" x2="128.24" y2="371.8" xlink:href="#linear-gradient-3"/><clipPath id="clippath-5"><polygon points="235.39 152.47 264.65 152.47 270.32 152.47 264.65 166.98 264.65 195.18 264.65 203.86 264.65 218.38 264.65 281.66 264.65 296.17 264.65 304.56 264.65 333.05 270.32 347.56 264.65 347.56 235.39 347.56 229.71 347.56 235.39 333.05 235.39 304.56 235.39 296.17 235.39 281.66 235.39 218.38 235.39 203.86 235.39 195.18 235.39 166.98 229.71 152.47 235.39 152.47" style="clip-rule:evenodd; fill:none;"/></clipPath><linearGradient id="linear-gradient-6" x1="250.02" y1="345.55" x2="250.02" y2="152.47" gradientUnits="userSpaceOnUse"><stop offset="0" stop-color="#85393b"/><stop offset=".54" stop-color="#d59f85"/><stop offset="1" stop-color="#faead1"/></linearGradient><clipPath id="clippath-6"><polygon points="233.87 155.31 238.22 166.45 238.22 333.58 233.87 344.72 266.16 344.72 261.81 333.58 261.81 166.45 266.16 155.31 233.87 155.31" style="clip-rule:evenodd; fill:none;"/></clipPath><linearGradient id="linear-gradient-7" x1="250.02" y1="458.94" x2="250.02" y2="155.31" xlink:href="#linear-gradient-6"/><clipPath id="clippath-7"><polygon points="188.49 178.16 217.75 178.16 223.43 178.16 217.75 192.68 217.75 307.35 223.43 321.87 217.75 321.87 188.49 321.87 182.82 321.87 188.49 307.35 188.49 192.68 182.82 178.16 188.49 178.16" style="clip-rule:evenodd; fill:none;"/></clipPath><linearGradient id="linear-gradient-8" x1="203.12" y1="320.38" x2="203.12" y2="178.17" xlink:href="#linear-gradient-6"/><clipPath id="clippath-8"><polygon points="186.97 181 191.33 192.15 191.33 307.89 186.97 319.03 219.27 319.03 214.92 307.89 214.92 192.15 219.27 181 186.97 181" style="clip-rule:evenodd; fill:none;"/></clipPath><linearGradient id="linear-gradient-9" x1="203.12" y1="402.26" x2="203.12" y2="181" xlink:href="#linear-gradient-6"/><clipPath id="clippath-9"><polygon points="282.28 178.16 311.54 178.16 317.22 178.16 311.54 192.68 311.54 307.35 317.22 321.87 311.54 321.87 282.28 321.87 276.61 321.87 282.28 307.35 282.28 192.68 276.61 178.16 282.28 178.16" style="clip-rule:evenodd; fill:none;"/></clipPath><linearGradient id="linear-gradient-10" x1="296.91" y1="320.38" x2="296.91" y2="178.17" xlink:href="#linear-gradient-6"/><clipPath id="clippath-10"><polygon points="280.76 181 285.12 192.15 285.12 307.89 280.76 319.03 313.06 319.03 308.7 307.89 308.7 192.15 313.06 181 280.76 181" style="clip-rule:evenodd; fill:none;"/></clipPath><linearGradient id="linear-gradient-11" x1="296.91" y1="402.26" x2="296.91" y2="181" xlink:href="#linear-gradient-6"/></defs><g id="Layer_1"><g style="clip-path:url(#clippath);"><rect width="500.03" height="500.03" style="fill:url(#linear-gradient);"/></g><g style="clip-path:url(#clippath-1);"><rect x="38.68" y="38.68" width="422.68" height="422.68" style="fill:url(#linear-gradient-2);"/></g><g style="clip-path:url(#clippath-2);"><rect x="83.75" y="83.75" width="332.54" height="332.54" style="fill:url(#linear-gradient-3);"/></g><g style="clip-path:url(#clippath-3);"><rect x="120.26" y="120.26" width="259.52" height="259.52" style="fill:url(#linear-gradient-4);"/></g><g style="clip-path:url(#clippath-4);"><rect x="128.23" y="128.23" width="243.56" height="243.56" style="fill:url(#linear-gradient-5);"/></g><g style="clip-path:url(#clippath-5);"><rect x="229.71" y="152.47" width="40.61" height="195.09" style="fill:url(#linear-gradient-6);"/></g><g style="clip-path:url(#clippath-6);"><rect x="233.87" y="155.31" width="32.3" height="189.42" style="fill:url(#linear-gradient-7);"/></g><g style="clip-path:url(#clippath-7);"><rect x="182.82" y="178.16" width="40.61" height="143.7" style="fill:url(#linear-gradient-8);"/></g><g style="clip-path:url(#clippath-8);"><rect x="186.97" y="181" width="32.3" height="138.03" style="fill:url(#linear-gradient-9);"/></g><g style="clip-path:url(#clippath-9);"><rect x="276.61" y="178.16" width="40.61" height="143.7" style="fill:url(#linear-gradient-10);"/></g><g style="clip-path:url(#clippath-10);"><rect x="280.76" y="181" width="32.3" height="138.03" style="fill:url(#linear-gradient-11);"/></g></g></svg>