<?xml version="1.0" encoding="UTF-8"?><svg id="Layer_3" xmlns="http://www.w3.org/2000/svg" xmlns:xlink="http://www.w3.org/1999/xlink" viewBox="0 0 499.9 386.45"><defs><clipPath id="clippath"><path d="M352.75,150.16l89.16-90.5c-5.32,21.79-18.72,84.71-14.08,111.94-31.26,9-60.7,43.32-57.67,75.76-28.07-40.79-37.93-66.11-17.41-97.2" style="clip-rule:evenodd; fill:none;"/></clipPath><linearGradient id="linear-gradient" x1="429.33" y1="73.92" x2="381.38" y2="164.24" gradientUnits="userSpaceOnUse"><stop offset="0" stop-color="#3c8c93"/><stop offset=".38" stop-color="#fffffd"/><stop offset=".55" stop-color="#ffeaff"/><stop offset="1" stop-color="#4c6ac2"/></linearGradient><clipPath id="clippath-1"><path d="M145.74,150.16L56.59,59.66c5.32,21.79,18.72,84.71,14.08,111.94,31.26,9,60.7,43.32,57.67,75.76,28.07-40.79,37.93-66.11,17.41-97.2" style="clip-rule:evenodd; fill:none;"/></clipPath><linearGradient id="linear-gradient-2" x1="69.17" y1="73.92" x2="117.12" y2="164.24" xlink:href="#linear-gradient"/><clipPath id="clippath-2"><path d="M352.75,150.16l89.16-90.5c-14.62,24.79-26.84,50.87-36.5,77.88-11.42,20.25-31.5,41.78-60.23,64.58-5.98-18.1-4.23-34.07,7.57-51.95" style="clip-rule:evenodd; fill:none;"/></clipPath><linearGradient id="linear-gradient-3" x1="384.7" y1="160.81" x2="405.88" y2="52.6" xlink:href="#linear-gradient"/><clipPath id="clippath-3"><path d="M145.74,150.16L56.59,59.66c14.62,24.79,26.84,50.87,36.5,77.88,11.42,20.25,31.5,41.78,60.23,64.58,5.98-18.1,4.23-34.07-7.57-51.95" style="clip-rule:evenodd; fill:none;"/></clipPath><linearGradient id="linear-gradient-4" x1="113.8" y1="160.81" x2="92.62" y2="52.6" xlink:href="#linear-gradient"/><clipPath id="clippath-4"><polygon points="458.04 182.7 249.25 386.45 40.46 182.7 458.04 182.7" style="clip-rule:evenodd; fill:none;"/></clipPath><linearGradient id="linear-gradient-5" x1="365.23" y1="195.44" x2="166.32" y2="348.31" gradientUnits="userSpaceOnUse"><stop offset="0" stop-color="#4c6ac2"/><stop offset=".5" stop-color="#ffeaff"/><stop offset="1" stop-color="#4c6ac2"/></linearGradient><clipPath id="clippath-5"><polygon points="381.88 220.28 249.25 365.12 116.62 220.28 381.88 220.28" style="clip-rule:evenodd; fill:none;"/></clipPath><linearGradient id="linear-gradient-6" x1="384.32" y1="292.7" x2="116.62" y2="292.7" gradientUnits="userSpaceOnUse"><stop offset="0" stop-color="#ffeaff"/><stop offset=".5" stop-color="#4c6ac2"/><stop offset="1" stop-color="#ffeaff"/></linearGradient><clipPath id="clippath-6"><path d="M125.54,182.7H0c19.31,11.35,73.73,45.53,90.22,67.68,27.63-15.76,72.28-12.68,93.62,11.93-10.42-48.01-22.01-72.5-58.3-79.61" style="clip-rule:evenodd; fill:none;"/></clipPath><linearGradient id="linear-gradient-7" x1="106.95" y1="224.92" x2="-3.92" y2="207.12" xlink:href="#linear-gradient"/><clipPath id="clippath-7"><path d="M0,182.7c19.31,11.35,73.73,45.53,90.22,67.68,27.63-15.76,72.28-12.68,93.62,11.93-1.34-6.17-2.7-11.95-4.13-17.36-8.01-12.33-17.88-23.67-29.52-33.58-62.63,0-91.08,1.23-150.19-28.67" style="clip-rule:evenodd; fill:none;"/></clipPath><linearGradient id="linear-gradient-8" x1="25.12" y1="200.09" x2="156.82" y2="244.28" xlink:href="#linear-gradient"/><clipPath id="clippath-8"><path d="M371.25,182.7h128.65c-19.78,11.35-75.56,45.53-92.45,67.68-28.31-15.76-74.07-12.68-95.94,11.93,10.68-48.01,22.55-72.5,59.74-79.61" style="clip-rule:evenodd; fill:none;"/></clipPath><linearGradient id="linear-gradient-9" x1="390.32" y1="225.04" x2="503.79" y2="206.36" xlink:href="#linear-gradient"/><clipPath id="clippath-9"><path d="M499.9,182.7c-19.79,11.35-75.56,45.53-92.45,67.68-28.31-15.76-74.07-12.68-95.94,11.93,1.37-6.17,2.77-11.95,4.23-17.36,8.21-12.33,18.32-23.67,30.25-33.58,64.18,0,93.33,1.23,153.91-28.67" style="clip-rule:evenodd; fill:none;"/></clipPath><linearGradient id="linear-gradient-10" x1="473.81" y1="199.09" x2="339.53" y2="245.26" xlink:href="#linear-gradient"/><clipPath id="clippath-10"><polygon points="89.5 182.7 249.25 35.06 409 182.7 249.25 330.34 89.5 182.7" style="clip-rule:evenodd; fill:none;"/></clipPath><linearGradient id="linear-gradient-11" x1="90" y1="173.83" x2="408.5" y2="191.57" gradientUnits="userSpaceOnUse"><stop offset="0" stop-color="#3c8c93"/><stop offset=".5" stop-color="#fffffd"/><stop offset="1" stop-color="#3c8c93"/></linearGradient><clipPath id="clippath-11"><polygon points="104.47 182.7 249.25 316.51 394.03 182.7 249.25 48.89 104.47 182.7" style="clip-rule:evenodd; fill:none;"/></clipPath><linearGradient id="linear-gradient-12" x1="249.25" y1="48.89" x2="249.25" y2="316.51" xlink:href="#linear-gradient-11"/><clipPath id="clippath-12"><polygon points="117.79 182.7 249.25 30.83 380.71 182.7 249.25 334.57 117.79 182.7" style="clip-rule:evenodd; fill:none;"/></clipPath><linearGradient id="linear-gradient-13" x1="119.38" y1="182.7" x2="380.71" y2="182.7" xlink:href="#linear-gradient-11"/><clipPath id="clippath-13"><polygon points="143.33 182.7 249.25 305.06 355.17 182.7 249.25 60.34 143.33 182.7" style="clip-rule:evenodd; fill:none;"/></clipPath><linearGradient id="linear-gradient-14" x1="249.25" y1="60.34" x2="249.25" y2="305.07" gradientUnits="userSpaceOnUse"><stop offset="0" stop-color="#3c8c93"/><stop offset=".26" stop-color="#fffffd"/><stop offset=".38" stop-color="#ffeaff"/><stop offset=".5" stop-color="#4c6ac2"/><stop offset=".66" stop-color="#ffeaff"/><stop offset=".8" stop-color="#fffffd"/><stop offset="1" stop-color="#3c8c93"/></linearGradient><clipPath id="clippath-14"><polygon points="156.89 182.7 249.25 76 341.61 182.7 249.25 289.4 156.89 182.7" style="clip-rule:evenodd; fill:none;"/></clipPath><linearGradient id="linear-gradient-15" x1="249.25" y1="75.14" x2="249.25" y2="289.41" xlink:href="#linear-gradient-5"/><clipPath id="clippath-15"><polygon points="165.05 182.7 249.25 279.98 333.45 182.7 249.25 85.43 165.05 182.7" style="clip-rule:evenodd; fill:none;"/></clipPath><linearGradient id="linear-gradient-16" x1="249.25" y1="97.85" x2="249.25" y2="271.53" gradientUnits="userSpaceOnUse"><stop offset="0" stop-color="#080120"/><stop offset="1" stop-color="#080009"/></linearGradient><clipPath id="clippath-16"><polygon points="221.67 335.85 249.25 305.06 276.82 335.85 249.25 366.64 221.67 335.85" style="clip-rule:evenodd; fill:none;"/></clipPath><linearGradient id="linear-gradient-17" x1="245.26" y1="366.12" x2="253.24" y2="305.59" xlink:href="#linear-gradient-5"/><clipPath id="clippath-17"><polygon points="221.67 30.79 249.25 0 276.82 30.79 249.25 61.58 221.67 30.79" style="clip-rule:evenodd; fill:none;"/></clipPath><linearGradient id="linear-gradient-18" x1="245.26" y1="61.05" x2="253.24" y2=".53" xlink:href="#linear-gradient-11"/><clipPath id="clippath-18"><path d="M249.25,106.08c43.37,0,78.53,34.31,78.53,76.63s-35.16,76.63-78.53,76.63-78.52-34.31-78.52-76.63,35.16-76.63,78.52-76.63" style="clip-rule:evenodd; fill:none;"/></clipPath><linearGradient id="linear-gradient-19" x1="170.72" y1="182.71" x2="327.78" y2="182.7" xlink:href="#linear-gradient-14"/><clipPath id="clippath-19"><path d="M249.25,110.79c40.7,0,73.7,32.2,73.7,71.91s-32.99,71.92-73.7,71.92-73.7-32.2-73.7-71.92,33-71.91,73.7-71.91" style="clip-rule:evenodd; fill:none;"/></clipPath><linearGradient id="linear-gradient-20" x1="249.25" y1="119.97" x2="249.25" y2="248.37" xlink:href="#linear-gradient-16"/><clipPath id="clippath-20"><polygon points="221.67 30.79 249.25 0 249.25 30.79 221.67 30.79" style="clip-rule:evenodd; fill:none;"/></clipPath><linearGradient id="linear-gradient-21" x1="227.73" y1="9.34" x2="259.44" y2="34.2" xlink:href="#linear-gradient-11"/><clipPath id="clippath-21"><polygon points="276.82 30.79 249.25 61.58 249.25 30.79 276.82 30.79" style="clip-rule:evenodd; fill:none;"/></clipPath><linearGradient id="linear-gradient-22" x1="270.76" y1="52.24" x2="239.06" y2="27.38" xlink:href="#linear-gradient-11"/><clipPath id="clippath-22"><polygon points="221.67 335.85 249.25 305.07 249.25 335.85 221.67 335.85" style="clip-rule:evenodd; fill:none;"/></clipPath><linearGradient id="linear-gradient-23" x1="227.73" y1="314.4" x2="259.44" y2="339.26" xlink:href="#linear-gradient-5"/><clipPath id="clippath-23"><polygon points="276.82 335.85 249.25 366.64 249.25 335.85 276.82 335.85" style="clip-rule:evenodd; fill:none;"/></clipPath><linearGradient id="linear-gradient-24" x1="270.76" y1="357.31" x2="239.06" y2="332.45" xlink:href="#linear-gradient-5"/><clipPath id="clippath-24"><polygon points="249.25 102.32 238.38 85.43 249.25 68.53 260.12 85.43 249.25 102.32" style="clip-rule:evenodd; fill:none;"/></clipPath><linearGradient id="linear-gradient-25" x1="250.46" y1="68.62" x2="248.04" y2="102.26" gradientUnits="userSpaceOnUse"><stop offset="0" stop-color="#3c8c93"/><stop offset=".35" stop-color="#fffffd"/><stop offset=".59" stop-color="#ffeaff"/><stop offset="1" stop-color="#4c6ac2"/></linearGradient><clipPath id="clippath-25"><polygon points="238.37 85.45 249.25 68.53 249.25 85.45 238.37 85.45" style="clip-rule:evenodd; fill:none;"/></clipPath><linearGradient id="linear-gradient-26" x1="243.21" y1="76.65" x2="256.95" y2="84.62" gradientUnits="userSpaceOnUse"><stop offset="0" stop-color="#3c8c93"/><stop offset=".29" stop-color="#fffffd"/><stop offset=".59" stop-color="#ffeaff"/><stop offset="1" stop-color="#4c6ac2"/></linearGradient><clipPath id="clippath-26"><polygon points="260.12 85.43 249.25 102.35 249.25 85.43 260.12 85.43" style="clip-rule:evenodd; fill:none;"/></clipPath><linearGradient id="linear-gradient-27" x1="241.23" y1="85.69" x2="255.84" y2="94.59" gradientUnits="userSpaceOnUse"><stop offset="0" stop-color="#3c8c93"/><stop offset=".35" stop-color="#fffffd"/><stop offset=".66" stop-color="#ffeaff"/><stop offset="1" stop-color="#4c6ac2"/></linearGradient><clipPath id="clippath-27"><polygon points="249.25 296.85 238.38 279.95 249.25 263.05 260.12 279.95 249.25 296.85" style="clip-rule:evenodd; fill:none;"/></clipPath><linearGradient id="linear-gradient-28" x1="250.46" y1="263.14" x2="248.04" y2="296.79" xlink:href="#linear-gradient-25"/><clipPath id="clippath-28"><polygon points="238.37 279.98 249.25 263.05 249.25 279.98 238.37 279.98" style="clip-rule:evenodd; fill:none;"/></clipPath><linearGradient id="linear-gradient-29" x1="243.21" y1="271.17" x2="256.95" y2="279.14" xlink:href="#linear-gradient-26"/><clipPath id="clippath-29"><polygon points="260.12 279.95 249.25 296.87 249.25 279.95 260.12 279.95" style="clip-rule:evenodd; fill:none;"/></clipPath><linearGradient id="linear-gradient-30" x1="241.23" y1="280.22" x2="255.84" y2="289.12" xlink:href="#linear-gradient-27"/><clipPath id="clippath-30"><polygon points="182.33 182.7 165.02 193.31 147.7 182.7 165.02 172.1 182.33 182.7" style="clip-rule:evenodd; fill:none;"/></clipPath><linearGradient id="linear-gradient-31" x1="147.8" y1="181.4" x2="182.26" y2="184.01" xlink:href="#linear-gradient-25"/><clipPath id="clippath-31"><polygon points="165.05 193.32 147.7 182.7 165.05 182.7 165.05 193.32" style="clip-rule:evenodd; fill:none;"/></clipPath><linearGradient id="linear-gradient-32" x1="156.05" y1="188.6" x2="163.63" y2="174.88" xlink:href="#linear-gradient-26"/><clipPath id="clippath-32"><polygon points="165.02 172.09 182.36 182.7 165.02 182.7 165.02 172.09" style="clip-rule:evenodd; fill:none;"/></clipPath><linearGradient id="linear-gradient-33" x1="165.88" y1="190.86" x2="174.36" y2="176.24" xlink:href="#linear-gradient-27"/><clipPath id="clippath-33"><polygon points="350.74 182.7 333.42 193.31 316.11 182.7 333.42 172.1 350.74 182.7" style="clip-rule:evenodd; fill:none;"/></clipPath><linearGradient id="linear-gradient-34" x1="316.2" y1="181.4" x2="350.66" y2="184.01" xlink:href="#linear-gradient-25"/><clipPath id="clippath-34"><polygon points="333.45 193.32 316.11 182.7 333.45 182.7 333.45 193.32" style="clip-rule:evenodd; fill:none;"/></clipPath><linearGradient id="linear-gradient-35" x1="324.45" y1="188.6" x2="332.04" y2="174.88" xlink:href="#linear-gradient-26"/><clipPath id="clippath-35"><polygon points="333.42 172.09 350.77 182.7 333.42 182.7 333.42 172.09" style="clip-rule:evenodd; fill:none;"/></clipPath><linearGradient id="linear-gradient-36" x1="334.29" y1="190.86" x2="342.76" y2="176.24" xlink:href="#linear-gradient-27"/><clipPath id="clippath-36"><polygon points="257.89 144.56 257.89 153.13 257.89 212.28 257.89 220.85 261.24 229.42 257.89 229.42 240.61 229.42 237.26 229.42 240.61 220.85 240.61 212.28 240.61 153.13 240.61 144.56 237.26 135.99 240.61 135.99 257.89 135.99 261.24 135.99 257.89 144.56" style="clip-rule:evenodd; fill:none;"/></clipPath><linearGradient id="linear-gradient-37" x1="249.25" y1="130.5" x2="249.25" y2="233.53" gradientUnits="userSpaceOnUse"><stop offset="0" stop-color="#3c8c93"/><stop offset=".38" stop-color="#fffffd"/><stop offset=".65" stop-color="#ffeaff"/><stop offset="1" stop-color="#4c6ac2"/></linearGradient><clipPath id="clippath-37"><polygon points="258.78 137.66 239.71 137.66 242.28 144.24 242.28 221.16 239.71 227.74 258.78 227.74 256.21 221.16 256.21 144.24 258.78 137.66" style="clip-rule:evenodd; fill:none;"/></clipPath><linearGradient id="linear-gradient-38" x1="249.25" y1="137.66" x2="249.25" y2="227.74" gradientUnits="userSpaceOnUse"><stop offset="0" stop-color="#fffffd"/><stop offset=".38" stop-color="#fffffd"/><stop offset=".71" stop-color="#ffeaff"/><stop offset="1" stop-color="#ffeaff"/></linearGradient></defs><g id="Layer_1"><g style="clip-path:url(#clippath);"><rect x="332.23" y="59.66" width="109.68" height="187.7" style="fill:url(#linear-gradient);"/></g><g style="clip-path:url(#clippath-1);"><rect x="56.59" y="59.66" width="109.68" height="187.7" style="fill:url(#linear-gradient-2);"/></g><g style="clip-path:url(#clippath-2);"><rect x="339.2" y="59.66" width="102.71" height="142.45" style="fill:url(#linear-gradient-3);"/></g><g style="clip-path:url(#clippath-3);"><rect x="56.59" y="59.66" width="102.71" height="142.45" style="fill:url(#linear-gradient-4);"/></g><g style="clip-path:url(#clippath-4);"><rect x="40.46" y="182.7" width="417.58" height="203.74" style="fill:url(#linear-gradient-5);"/></g><g style="clip-path:url(#clippath-5);"><rect x="116.62" y="220.28" width="265.26" height="144.84" style="fill:url(#linear-gradient-6);"/></g><g style="clip-path:url(#clippath-6);"><rect y="182.7" width="183.84" height="79.61" style="fill:url(#linear-gradient-7);"/></g><g style="clip-path:url(#clippath-7);"><rect y="182.7" width="183.84" height="79.61" style="fill:url(#linear-gradient-8);"/></g><g style="clip-path:url(#clippath-8);"><rect x="311.51" y="182.7" width="188.39" height="79.61" style="fill:url(#linear-gradient-9);"/></g><g style="clip-path:url(#clippath-9);"><rect x="311.51" y="182.7" width="188.39" height="79.61" style="fill:url(#linear-gradient-10);"/></g><g style="clip-path:url(#clippath-10);"><rect x="89.5" y="35.06" width="319.49" height="295.28" style="fill:url(#linear-gradient-11);"/></g><g style="clip-path:url(#clippath-11);"><rect x="104.47" y="48.89" width="289.56" height="267.62" style="fill:url(#linear-gradient-12);"/></g><g style="clip-path:url(#clippath-12);"><rect x="117.79" y="30.83" width="262.92" height="303.74" style="fill:url(#linear-gradient-13);"/></g><g style="clip-path:url(#clippath-13);"><rect x="143.33" y="60.34" width="211.84" height="244.72" style="fill:url(#linear-gradient-14);"/></g><g style="clip-path:url(#clippath-14);"><rect x="156.89" y="76" width="184.72" height="213.4" style="fill:url(#linear-gradient-15);"/></g><g style="clip-path:url(#clippath-15);"><rect x="165.05" y="85.43" width="168.41" height="194.55" style="fill:url(#linear-gradient-16);"/></g><g style="clip-path:url(#clippath-16);"><rect x="221.67" y="305.06" width="55.15" height="61.58" style="fill:url(#linear-gradient-17);"/></g><g style="clip-path:url(#clippath-17);"><rect x="221.67" width="55.15" height="61.58" style="fill:url(#linear-gradient-18);"/></g><g style="clip-path:url(#clippath-18);"><rect x="170.72" y="106.08" width="157.05" height="153.25" style="fill:url(#linear-gradient-19);"/></g><g style="clip-path:url(#clippath-19);"><rect x="175.55" y="110.79" width="147.39" height="143.83" style="fill:url(#linear-gradient-20);"/></g><g style="clip-path:url(#clippath-20);"><rect x="221.67" y="0" width="27.58" height="30.79" style="fill:url(#linear-gradient-21);"/></g><g style="clip-path:url(#clippath-21);"><rect x="249.25" y="30.79" width="27.58" height="30.79" style="fill:url(#linear-gradient-22);"/></g><g style="clip-path:url(#clippath-22);"><rect x="221.67" y="305.07" width="27.58" height="30.79" style="fill:url(#linear-gradient-23);"/></g><g style="clip-path:url(#clippath-23);"><rect x="249.25" y="335.85" width="27.58" height="30.79" style="fill:url(#linear-gradient-24);"/></g><g style="clip-path:url(#clippath-24);"><rect x="238.38" y="68.53" width="21.74" height="33.79" style="fill:url(#linear-gradient-25);"/></g><g style="clip-path:url(#clippath-25);"><rect x="238.37" y="68.53" width="10.87" height="16.92" style="fill:url(#linear-gradient-26);"/></g><g style="clip-path:url(#clippath-26);"><rect x="249.25" y="85.43" width="10.88" height="16.92" style="fill:url(#linear-gradient-27);"/></g><g style="clip-path:url(#clippath-27);"><rect x="238.38" y="263.05" width="21.74" height="33.79" style="fill:url(#linear-gradient-28);"/></g><g style="clip-path:url(#clippath-28);"><rect x="238.37" y="263.05" width="10.87" height="16.92" style="fill:url(#linear-gradient-29);"/></g><g style="clip-path:url(#clippath-29);"><rect x="249.25" y="279.95" width="10.88" height="16.92" style="fill:url(#linear-gradient-30);"/></g><g style="clip-path:url(#clippath-30);"><rect x="147.7" y="172.1" width="34.63" height="21.22" style="fill:url(#linear-gradient-31);"/></g><g style="clip-path:url(#clippath-31);"><rect x="147.7" y="182.7" width="17.34" height="10.61" style="fill:url(#linear-gradient-32);"/></g><g style="clip-path:url(#clippath-32);"><rect x="165.02" y="172.09" width="17.34" height="10.61" style="fill:url(#linear-gradient-33);"/></g><g style="clip-path:url(#clippath-33);"><rect x="316.11" y="172.1" width="34.63" height="21.22" style="fill:url(#linear-gradient-34);"/></g><g style="clip-path:url(#clippath-34);"><rect x="316.11" y="182.7" width="17.34" height="10.61" style="fill:url(#linear-gradient-35);"/></g><g style="clip-path:url(#clippath-35);"><rect x="333.42" y="172.09" width="17.34" height="10.61" style="fill:url(#linear-gradient-36);"/></g><g style="clip-path:url(#clippath-36);"><rect x="237.26" y="135.99" width="23.98" height="93.43" style="fill:url(#linear-gradient-37);"/></g><g style="clip-path:url(#clippath-37);"><rect x="239.71" y="137.66" width="19.07" height="90.08" style="fill:url(#linear-gradient-38);"/></g></g></svg>