<?xml version="1.0" encoding="UTF-8"?><svg id="Layer_3" xmlns="http://www.w3.org/2000/svg" xmlns:xlink="http://www.w3.org/1999/xlink" viewBox="0 0 499.9 394.91"><defs><clipPath id="clippath"><path d="M353.17,153.45l88.91-92.49c-5.31,22.26-18.67,86.56-14.04,114.39-31.17,9.19-60.54,44.27-57.51,77.42-27.99-41.68-37.83-67.56-17.36-99.33" style="clip-rule:evenodd; fill:none;"/></clipPath><linearGradient id="linear-gradient" x1="431.16" y1="76.42" x2="381.49" y2="167.71" gradientUnits="userSpaceOnUse"><stop offset="0" stop-color="#3c8c93"/><stop offset=".38" stop-color="#fffffd"/><stop offset=".55" stop-color="#ffeaff"/><stop offset="1" stop-color="#4c6ac2"/></linearGradient><clipPath id="clippath-1"><path d="M146.73,153.45L57.83,60.96c5.31,22.26,18.67,86.56,14.04,114.39,31.17,9.19,60.54,44.27,57.51,77.42,27.99-41.68,37.83-67.56,17.36-99.33" style="clip-rule:evenodd; fill:none;"/></clipPath><linearGradient id="linear-gradient-2" x1="68.74" y1="76.42" x2="118.41" y2="167.71" xlink:href="#linear-gradient"/><clipPath id="clippath-2"><path d="M353.17,153.45l88.91-92.49c-14.58,25.34-26.77,51.98-36.4,79.58-11.39,20.7-31.41,42.7-60.06,65.99-5.96-18.5-4.22-34.82,7.55-53.09" style="clip-rule:evenodd; fill:none;"/></clipPath><linearGradient id="linear-gradient-3" x1="384.74" y1="164.27" x2="406.88" y2="53.91" xlink:href="#linear-gradient"/><clipPath id="clippath-3"><path d="M146.73,153.45L57.83,60.96c14.58,25.34,26.77,51.98,36.4,79.58,11.39,20.7,31.41,42.7,60.06,65.99,5.96-18.5,4.22-34.82-7.55-53.09" style="clip-rule:evenodd; fill:none;"/></clipPath><linearGradient id="linear-gradient-4" x1="115.16" y1="164.27" x2="93.02" y2="53.91" xlink:href="#linear-gradient"/><clipPath id="clippath-4"><polygon points="458.16 186.7 249.95 394.91 41.74 186.7 458.16 186.7" style="clip-rule:evenodd; fill:none;"/></clipPath><linearGradient id="linear-gradient-5" x1="367.69" y1="202.51" x2="165.76" y2="353.95" gradientUnits="userSpaceOnUse"><stop offset="0" stop-color="#4c6ac2"/><stop offset=".5" stop-color="#ffeaff"/><stop offset="1" stop-color="#4c6ac2"/></linearGradient><clipPath id="clippath-5"><polygon points="382.21 225.11 249.95 373.12 117.69 225.11 382.21 225.11" style="clip-rule:evenodd; fill:none;"/></clipPath><linearGradient id="linear-gradient-6" x1="384.64" y1="299.11" x2="117.69" y2="299.12" gradientUnits="userSpaceOnUse"><stop offset="0" stop-color="#ffeaff"/><stop offset=".5" stop-color="#4c6ac2"/><stop offset="1" stop-color="#ffeaff"/></linearGradient><clipPath id="clippath-6"><path d="M128.29,186.7H0c19.73,11.6,75.34,46.53,92.2,69.16,28.23-16.1,73.87-12.96,95.67,12.19-10.65-49.07-22.49-74.09-59.58-81.35" style="clip-rule:evenodd; fill:none;"/></clipPath><linearGradient id="linear-gradient-7" x1="109.29" y1="229.85" x2="-4.01" y2="211.65" xlink:href="#linear-gradient"/><clipPath id="clippath-7"><path d="M371.61,186.7h128.29c-19.73,11.6-75.34,46.53-92.2,69.16-28.23-16.1-73.87-12.96-95.67,12.19,10.65-49.07,22.49-74.09,59.58-81.35" style="clip-rule:evenodd; fill:none;"/></clipPath><linearGradient id="linear-gradient-8" x1="390.61" y1="229.85" x2="503.91" y2="211.65" xlink:href="#linear-gradient"/><clipPath id="clippath-8"><path d="M499.9,186.7c-19.73,11.6-75.34,46.53-92.2,69.16-28.23-16.1-73.87-12.96-95.67,12.19,1.37-6.31,2.76-12.21,4.22-17.74,8.19-12.6,18.27-24.19,30.17-34.31,64,0,93.07,1.26,153.48-29.3" style="clip-rule:evenodd; fill:none;"/></clipPath><linearGradient id="linear-gradient-9" x1="474.22" y1="204.48" x2="339.65" y2="249.63" xlink:href="#linear-gradient"/><clipPath id="clippath-9"><path d="M0,186.7c19.73,11.6,75.34,46.53,92.2,69.16,28.23-16.1,73.87-12.96,95.67,12.19-1.37-6.31-2.76-12.21-4.22-17.74-8.19-12.6-18.27-24.19-30.17-34.31-64,0-93.07,1.26-153.48-29.3" style="clip-rule:evenodd; fill:none;"/></clipPath><linearGradient id="linear-gradient-10" x1="25.67" y1="204.48" x2="160.25" y2="249.63" xlink:href="#linear-gradient"/><clipPath id="clippath-10"><polygon points="90.65 186.7 249.95 35.83 409.25 186.7 249.95 337.58 90.65 186.7" style="clip-rule:evenodd; fill:none;"/></clipPath><linearGradient id="linear-gradient-11" x1="91.12" y1="178.07" x2="408.78" y2="195.34" gradientUnits="userSpaceOnUse"><stop offset="0" stop-color="#3c8c93"/><stop offset=".5" stop-color="#fffffd"/><stop offset="1" stop-color="#3c8c93"/></linearGradient><clipPath id="clippath-11"><polygon points="105.57 186.7 249.95 323.45 394.33 186.7 249.95 49.96 105.57 186.7" style="clip-rule:evenodd; fill:none;"/></clipPath><linearGradient id="linear-gradient-12" x1="249.95" y1="49.96" x2="249.95" y2="323.45" xlink:href="#linear-gradient-11"/><clipPath id="clippath-12"><polygon points="118.85 186.7 249.95 31.51 381.04 186.7 249.95 341.9 118.85 186.7" style="clip-rule:evenodd; fill:none;"/></clipPath><linearGradient id="linear-gradient-13" x1="120.45" y1="186.71" x2="381.04" y2="186.7" xlink:href="#linear-gradient-11"/><clipPath id="clippath-13"><polygon points="144.33 186.7 249.95 311.75 355.57 186.7 249.95 61.66 144.33 186.7" style="clip-rule:evenodd; fill:none;"/></clipPath><linearGradient id="linear-gradient-14" x1="249.95" y1="61.66" x2="249.95" y2="311.75" gradientUnits="userSpaceOnUse"><stop offset="0" stop-color="#3c8c93"/><stop offset=".26" stop-color="#fffffd"/><stop offset=".38" stop-color="#ffeaff"/><stop offset=".5" stop-color="#4c6ac2"/><stop offset=".66" stop-color="#ffeaff"/><stop offset=".8" stop-color="#fffffd"/><stop offset="1" stop-color="#3c8c93"/></linearGradient><clipPath id="clippath-14"><polygon points="157.85 186.7 249.95 77.67 342.05 186.7 249.95 295.74 157.85 186.7" style="clip-rule:evenodd; fill:none;"/></clipPath><linearGradient id="linear-gradient-15" x1="249.95" y1="76.78" x2="249.95" y2="295.74" xlink:href="#linear-gradient-5"/><clipPath id="clippath-15"><polygon points="165.98 186.7 249.95 286.11 333.92 186.7 249.95 87.3 165.98 186.7" style="clip-rule:evenodd; fill:none;"/></clipPath><linearGradient id="linear-gradient-16" x1="249.95" y1="99.99" x2="249.95" y2="277.48" gradientUnits="userSpaceOnUse"><stop offset="0" stop-color="#080120"/><stop offset="1" stop-color="#080009"/></linearGradient><clipPath id="clippath-16"><polygon points="222.45 343.21 249.95 311.75 277.45 343.21 249.95 374.67 222.45 343.21" style="clip-rule:evenodd; fill:none;"/></clipPath><linearGradient id="linear-gradient-17" x1="245.78" y1="374.11" x2="254.12" y2="312.31" xlink:href="#linear-gradient-5"/><clipPath id="clippath-17"><polygon points="222.45 31.46 249.95 0 277.45 31.46 249.95 62.93 222.45 31.46" style="clip-rule:evenodd; fill:none;"/></clipPath><linearGradient id="linear-gradient-18" x1="245.78" y1="62.36" x2="254.12" y2=".56" xlink:href="#linear-gradient-11"/><clipPath id="clippath-18"><path d="M249.95,108.4c43.25,0,78.31,35.06,78.31,78.31s-35.06,78.31-78.31,78.31-78.31-35.06-78.31-78.31,35.06-78.31,78.31-78.31" style="clip-rule:evenodd; fill:none;"/></clipPath><linearGradient id="linear-gradient-19" x1="171.64" y1="186.71" x2="328.26" y2="186.7" xlink:href="#linear-gradient-14"/><clipPath id="clippath-19"><path d="M249.95,113.21c40.59,0,73.49,32.9,73.49,73.49s-32.9,73.49-73.49,73.49-73.49-32.9-73.49-73.49,32.9-73.49,73.49-73.49" style="clip-rule:evenodd; fill:none;"/></clipPath><linearGradient id="linear-gradient-20" x1="249.95" y1="122.6" x2="249.95" y2="253.81" xlink:href="#linear-gradient-16"/><clipPath id="clippath-20"><polygon points="222.45 31.46 249.95 0 249.95 31.46 222.45 31.46" style="clip-rule:evenodd; fill:none;"/></clipPath><linearGradient id="linear-gradient-21" x1="228.35" y1="9.73" x2="260.55" y2="34.37" xlink:href="#linear-gradient-11"/><clipPath id="clippath-21"><polygon points="277.45 31.46 249.95 62.93 249.95 31.46 277.45 31.46" style="clip-rule:evenodd; fill:none;"/></clipPath><linearGradient id="linear-gradient-22" x1="271.55" y1="53.2" x2="239.35" y2="28.56" xlink:href="#linear-gradient-11"/><clipPath id="clippath-22"><polygon points="222.45 343.21 249.95 311.75 249.95 343.21 222.45 343.21" style="clip-rule:evenodd; fill:none;"/></clipPath><linearGradient id="linear-gradient-23" x1="228.35" y1="321.47" x2="260.55" y2="346.12" xlink:href="#linear-gradient-5"/><clipPath id="clippath-23"><polygon points="277.45 343.21 249.95 374.67 249.95 343.21 277.45 343.21" style="clip-rule:evenodd; fill:none;"/></clipPath><linearGradient id="linear-gradient-24" x1="271.55" y1="364.95" x2="239.35" y2="340.31" xlink:href="#linear-gradient-5"/><clipPath id="clippath-24"><polygon points="249.95 104.57 239.11 87.3 249.95 70.03 260.79 87.3 249.95 104.57" style="clip-rule:evenodd; fill:none;"/></clipPath><linearGradient id="linear-gradient-25" x1="251.22" y1="70.12" x2="248.68" y2="104.5" gradientUnits="userSpaceOnUse"><stop offset="0" stop-color="#3c8c93"/><stop offset=".35" stop-color="#fffffd"/><stop offset=".59" stop-color="#ffeaff"/><stop offset="1" stop-color="#4c6ac2"/></linearGradient><clipPath id="clippath-25"><polygon points="239.1 87.33 249.95 70.03 249.95 87.33 239.1 87.33" style="clip-rule:evenodd; fill:none;"/></clipPath><linearGradient id="linear-gradient-26" x1="243.93" y1="78.34" x2="257.79" y2="86.19" gradientUnits="userSpaceOnUse"><stop offset="0" stop-color="#3c8c93"/><stop offset=".29" stop-color="#fffffd"/><stop offset=".59" stop-color="#ffeaff"/><stop offset="1" stop-color="#4c6ac2"/></linearGradient><clipPath id="clippath-26"><polygon points="260.79 87.3 249.95 104.59 249.95 87.3 260.79 87.3" style="clip-rule:evenodd; fill:none;"/></clipPath><linearGradient id="linear-gradient-27" x1="241.78" y1="87.87" x2="256.54" y2="96.64" gradientUnits="userSpaceOnUse"><stop offset="0" stop-color="#3c8c93"/><stop offset=".35" stop-color="#fffffd"/><stop offset=".66" stop-color="#ffeaff"/><stop offset="1" stop-color="#4c6ac2"/></linearGradient><clipPath id="clippath-27"><polygon points="249.95 303.35 239.11 286.08 249.95 268.82 260.79 286.08 249.95 303.35" style="clip-rule:evenodd; fill:none;"/></clipPath><linearGradient id="linear-gradient-28" x1="251.22" y1="268.91" x2="248.68" y2="303.28" xlink:href="#linear-gradient-25"/><clipPath id="clippath-28"><polygon points="239.1 286.11 249.95 268.82 249.95 286.11 239.1 286.11" style="clip-rule:evenodd; fill:none;"/></clipPath><linearGradient id="linear-gradient-29" x1="243.93" y1="277.12" x2="257.79" y2="284.98" xlink:href="#linear-gradient-26"/><clipPath id="clippath-29"><polygon points="260.79 286.08 249.95 303.38 249.95 286.08 260.79 286.08" style="clip-rule:evenodd; fill:none;"/></clipPath><linearGradient id="linear-gradient-30" x1="241.78" y1="286.65" x2="256.54" y2="295.42" xlink:href="#linear-gradient-27"/><clipPath id="clippath-30"><polygon points="183.22 186.7 165.95 197.54 148.69 186.7 165.95 175.86 183.22 186.7" style="clip-rule:evenodd; fill:none;"/></clipPath><linearGradient id="linear-gradient-31" x1="148.78" y1="185.44" x2="183.16" y2="187.98" xlink:href="#linear-gradient-25"/><clipPath id="clippath-31"><polygon points="165.98 197.55 148.69 186.7 165.98 186.7 165.98 197.55" style="clip-rule:evenodd; fill:none;"/></clipPath><linearGradient id="linear-gradient-32" x1="156.99" y1="192.73" x2="164.85" y2="178.86" xlink:href="#linear-gradient-26"/><clipPath id="clippath-32"><polygon points="165.95 175.86 183.25 186.7 165.95 186.7 165.95 175.86" style="clip-rule:evenodd; fill:none;"/></clipPath><linearGradient id="linear-gradient-33" x1="166.53" y1="194.87" x2="175.3" y2="180.12" xlink:href="#linear-gradient-27"/><clipPath id="clippath-33"><polygon points="351.15 186.7 333.89 197.54 316.62 186.7 333.89 175.86 351.15 186.7" style="clip-rule:evenodd; fill:none;"/></clipPath><linearGradient id="linear-gradient-34" x1="316.72" y1="185.44" x2="351.09" y2="187.98" xlink:href="#linear-gradient-25"/><clipPath id="clippath-34"><polygon points="333.92 197.55 316.62 186.7 333.92 186.7 333.92 197.55" style="clip-rule:evenodd; fill:none;"/></clipPath><linearGradient id="linear-gradient-35" x1="324.93" y1="192.73" x2="332.78" y2="178.86" xlink:href="#linear-gradient-26"/><clipPath id="clippath-35"><polygon points="333.89 175.86 351.18 186.7 333.89 186.7 333.89 175.86" style="clip-rule:evenodd; fill:none;"/></clipPath><linearGradient id="linear-gradient-36" x1="334.46" y1="194.87" x2="343.23" y2="180.12" xlink:href="#linear-gradient-27"/><clipPath id="clippath-36"><polygon points="273.78 147.72 273.78 156.48 273.78 216.93 273.78 225.68 277.21 234.44 273.78 234.44 256.13 234.44 252.7 234.44 256.13 225.68 256.13 216.93 256.13 156.48 256.13 147.72 252.7 138.97 256.13 138.97 273.78 138.97 277.21 138.97 273.78 147.72" style="clip-rule:evenodd; fill:none;"/></clipPath><linearGradient id="linear-gradient-37" x1="264.95" y1="133.36" x2="264.96" y2="238.64" gradientUnits="userSpaceOnUse"><stop offset="0" stop-color="#3c8c93"/><stop offset=".38" stop-color="#fffffd"/><stop offset=".65" stop-color="#ffeaff"/><stop offset="1" stop-color="#4c6ac2"/></linearGradient><clipPath id="clippath-37"><polygon points="243.77 147.72 243.77 156.48 243.77 216.93 243.77 225.68 247.2 234.44 243.77 234.44 226.11 234.44 222.69 234.44 226.11 225.68 226.11 216.93 226.11 156.48 226.11 147.72 222.69 138.97 226.11 138.97 243.77 138.97 247.2 138.97 243.77 147.72" style="clip-rule:evenodd; fill:none;"/></clipPath><linearGradient id="linear-gradient-38" x1="234.94" y1="133.36" x2="234.94" y2="238.64" xlink:href="#linear-gradient-37"/><clipPath id="clippath-38"><polygon points="244.69 140.68 225.2 140.68 227.83 147.4 227.83 226.01 225.2 232.73 244.69 232.73 242.06 226.01 242.06 147.4 244.69 140.68" style="clip-rule:evenodd; fill:none;"/></clipPath><linearGradient id="linear-gradient-39" x1="234.94" y1="140.68" x2="234.95" y2="232.73" gradientUnits="userSpaceOnUse"><stop offset="0" stop-color="#fffffd"/><stop offset=".38" stop-color="#fffffd"/><stop offset=".71" stop-color="#ffeaff"/><stop offset="1" stop-color="#ffeaff"/></linearGradient><clipPath id="clippath-39"><polygon points="274.7 140.68 255.21 140.68 257.84 147.4 257.84 226.01 255.21 232.73 274.7 232.73 272.07 226.01 272.07 147.4 274.7 140.68" style="clip-rule:evenodd; fill:none;"/></clipPath><linearGradient id="linear-gradient-40" x1="264.95" y1="140.68" x2="264.96" y2="232.73" xlink:href="#linear-gradient-39"/></defs><g id="Layer_1"><g style="clip-path:url(#clippath);"><rect x="332.7" y="60.96" width="109.37" height="191.81" style="fill:url(#linear-gradient);"/></g><g style="clip-path:url(#clippath-1);"><rect x="57.83" y="60.96" width="109.37" height="191.81" style="fill:url(#linear-gradient-2);"/></g><g style="clip-path:url(#clippath-2);"><rect x="339.65" y="60.96" width="102.42" height="145.57" style="fill:url(#linear-gradient-3);"/></g><g style="clip-path:url(#clippath-3);"><rect x="57.83" y="60.96" width="102.42" height="145.57" style="fill:url(#linear-gradient-4);"/></g><g style="clip-path:url(#clippath-4);"><rect x="41.74" y="186.7" width="416.41" height="208.21" style="fill:url(#linear-gradient-5);"/></g><g style="clip-path:url(#clippath-5);"><rect x="117.69" y="225.11" width="264.52" height="148.02" style="fill:url(#linear-gradient-6);"/></g><g style="clip-path:url(#clippath-6);"><rect y="186.7" width="187.87" height="81.35" style="fill:url(#linear-gradient-7);"/></g><g style="clip-path:url(#clippath-7);"><rect x="312.03" y="186.7" width="187.87" height="81.35" style="fill:url(#linear-gradient-8);"/></g><g style="clip-path:url(#clippath-8);"><rect x="312.03" y="186.7" width="187.87" height="81.35" style="fill:url(#linear-gradient-9);"/></g><g style="clip-path:url(#clippath-9);"><rect y="186.7" width="187.87" height="81.35" style="fill:url(#linear-gradient-10);"/></g><g style="clip-path:url(#clippath-10);"><rect x="90.65" y="35.83" width="318.6" height="301.75" style="fill:url(#linear-gradient-11);"/></g><g style="clip-path:url(#clippath-11);"><rect x="105.57" y="49.96" width="288.75" height="273.48" style="fill:url(#linear-gradient-12);"/></g><g style="clip-path:url(#clippath-12);"><rect x="118.85" y="31.51" width="262.19" height="310.4" style="fill:url(#linear-gradient-13);"/></g><g style="clip-path:url(#clippath-13);"><rect x="144.33" y="61.66" width="211.24" height="250.08" style="fill:url(#linear-gradient-14);"/></g><g style="clip-path:url(#clippath-14);"><rect x="157.85" y="77.67" width="184.21" height="218.08" style="fill:url(#linear-gradient-15);"/></g><g style="clip-path:url(#clippath-15);"><rect x="165.98" y="87.3" width="167.93" height="198.81" style="fill:url(#linear-gradient-16);"/></g><g style="clip-path:url(#clippath-16);"><rect x="222.45" y="311.75" width="55" height="62.93" style="fill:url(#linear-gradient-17);"/></g><g style="clip-path:url(#clippath-17);"><rect x="222.45" width="55" height="62.93" style="fill:url(#linear-gradient-18);"/></g><g style="clip-path:url(#clippath-18);"><rect x="171.64" y="108.4" width="156.61" height="156.61" style="fill:url(#linear-gradient-19);"/></g><g style="clip-path:url(#clippath-19);"><rect x="176.46" y="113.21" width="146.98" height="146.98" style="fill:url(#linear-gradient-20);"/></g><g style="clip-path:url(#clippath-20);"><rect x="222.45" y="0" width="27.5" height="31.46" style="fill:url(#linear-gradient-21);"/></g><g style="clip-path:url(#clippath-21);"><rect x="249.95" y="31.46" width="27.5" height="31.46" style="fill:url(#linear-gradient-22);"/></g><g style="clip-path:url(#clippath-22);"><rect x="222.45" y="311.75" width="27.5" height="31.46" style="fill:url(#linear-gradient-23);"/></g><g style="clip-path:url(#clippath-23);"><rect x="249.95" y="343.21" width="27.5" height="31.46" style="fill:url(#linear-gradient-24);"/></g><g style="clip-path:url(#clippath-24);"><rect x="239.11" y="70.03" width="21.68" height="34.53" style="fill:url(#linear-gradient-25);"/></g><g style="clip-path:url(#clippath-25);"><rect x="239.1" y="70.03" width="10.84" height="17.29" style="fill:url(#linear-gradient-26);"/></g><g style="clip-path:url(#clippath-26);"><rect x="249.95" y="87.3" width="10.84" height="17.29" style="fill:url(#linear-gradient-27);"/></g><g style="clip-path:url(#clippath-27);"><rect x="239.11" y="268.82" width="21.68" height="34.53" style="fill:url(#linear-gradient-28);"/></g><g style="clip-path:url(#clippath-28);"><rect x="239.1" y="268.82" width="10.84" height="17.29" style="fill:url(#linear-gradient-29);"/></g><g style="clip-path:url(#clippath-29);"><rect x="249.95" y="286.08" width="10.84" height="17.29" style="fill:url(#linear-gradient-30);"/></g><g style="clip-path:url(#clippath-30);"><rect x="148.69" y="175.86" width="34.53" height="21.68" style="fill:url(#linear-gradient-31);"/></g><g style="clip-path:url(#clippath-31);"><rect x="148.69" y="186.7" width="17.29" height="10.84" style="fill:url(#linear-gradient-32);"/></g><g style="clip-path:url(#clippath-32);"><rect x="165.95" y="175.86" width="17.29" height="10.84" style="fill:url(#linear-gradient-33);"/></g><g style="clip-path:url(#clippath-33);"><rect x="316.62" y="175.86" width="34.53" height="21.68" style="fill:url(#linear-gradient-34);"/></g><g style="clip-path:url(#clippath-34);"><rect x="316.62" y="186.7" width="17.29" height="10.84" style="fill:url(#linear-gradient-35);"/></g><g style="clip-path:url(#clippath-35);"><rect x="333.89" y="175.86" width="17.29" height="10.84" style="fill:url(#linear-gradient-36);"/></g><g style="clip-path:url(#clippath-36);"><rect x="252.7" y="138.97" width="24.51" height="95.48" style="fill:url(#linear-gradient-37);"/></g><g style="clip-path:url(#clippath-37);"><rect x="222.69" y="138.97" width="24.51" height="95.48" style="fill:url(#linear-gradient-38);"/></g><g style="clip-path:url(#clippath-38);"><rect x="225.2" y="140.68" width="19.49" height="92.05" style="fill:url(#linear-gradient-39);"/></g><g style="clip-path:url(#clippath-39);"><rect x="255.21" y="140.68" width="19.49" height="92.05" style="fill:url(#linear-gradient-40);"/></g></g></svg>